<?xml version="1.0" encoding="UTF-8"?>
<!-- Generated by jsxcad -->
<!DOCTYPE svg PUBLIC "-//W3C//DTD SVG 1.1 Tiny//EN" "http://www.w3.org/Graphics/SVG/1.1/DTD/svg11-tiny.dtd">
<svg baseProfile="tiny" height="16.58988207178723mm" width="19.050000000000015mm" viewBox="-9.525000000000007 -10.036436149787974 19.050000000000015 16.58988207178723" version="1.1" stroke="black" stroke-width=".1" fill="none" xmlns="http://www.w3.org/2000/svg">
<path fill="#3c3c3c" stroke="#3c3c3c" d="M1.6250000000000002 -3.4070016920473747 L1.6250000000000002 -1.160016920473771 L1.4072912811497134 -1.7349534686971209 L1.4072912811497134 -3.981938240270725 L1.5557686274056097 -3.5898315143824 z"/>
<path fill="#3c3c3c" stroke="#3c3c3c" d="M0.8125000000000022 -4.402821004698492 L1.2181476537441056 -4.115778959358754 L1.4072912811497147 -3.981938240270726 L1.4072912811497138 -1.7349534686971204 L0.8125000000000014 -2.155836233124886 z"/>
<path fill="#3c3c3c" stroke="#3c3c3c" d="M0.8125 -4.402821004698495 L0.8125 -2.1558362331248886 L2.833893154632013e-16 -2.3098900169204724 L2.833893154632013e-16 -4.5568747884940795 L0.5541250000000001 -4.451810107945491 z"/>
<path fill="#3c3c3c" stroke="#3c3c3c" d="M2.833893154632013e-16 -2.3098900169204724 L-0.8124999999999997 -2.1558362331248886 L-0.8124999999999997 -4.402821004698492 L-0.25837499999999974 -4.50788568524708 L2.833893154632013e-16 -4.556874788494076 z"/>
<path fill="#3c3c3c" stroke="#3c3c3c" d="M-0.8125000000000003 -2.1558362331248877 L-1.4072912811497154 -1.7349534686971209 L-1.407291281149714 -3.9819382402707237 L-1.0016436274056089 -4.2689802856104615 L-0.8125000000000009 -4.402821004698492 z"/>
<path fill="#3c3c3c" stroke="#3c3c3c" d="M-1.4072912811497127 -1.7349534686971213 L-1.625 -1.1600169204737716 L-1.625 -3.4070016920473756 L-1.4765226537441045 -3.7991084179357 L-1.407291281149713 -3.9819382402707255 z"/>
<path fill="#3c3c3c" stroke="#3c3c3c" d="M0.2583749999999985 -2.306117698847673 L-1.6422950368741481e-15 -2.2571285956006775 L-1.6422950368741481e-15 -0.010143824027072973 L0.8124999999999988 -0.16419760782265647 L0.8124999999999988 -2.411182379396261 z"/>
<path fill="#3c3c3c" stroke="#3c3c3c" d="M-1.6249999999999998 -1.1600169204737714 L-1.4072912811497125 -0.5850803722504215 L-1.4072912811497131 -2.8320651438240247 L-1.5557686274056086 -3.22417186971235 L-1.6249999999999996 -3.407001692047375 z"/>
<path fill="#3c3c3c" stroke="#3c3c3c" d="M-1.4072912811497122 -2.8320651438240247 L-1.4072912811497122 -0.5850803722504216 L-0.8125000000000009 -0.16419760782265455 L-0.812499999999999 -2.411182379396259 L-1.2181476537441023 -2.6982244247359954 z"/>
<path fill="#3c3c3c" stroke="#3c3c3c" d="M-0.8125000000000011 -2.411182379396262 L-0.8125000000000011 -0.16419760782265622 L-1.6422950368741481e-15 -0.01014382402707191 L-1.6422950368741481e-15 -2.257128595600678 L-0.5541250000000012 -2.362193276149266 z"/>
<path fill="#3c3c3c" stroke="#3c3c3c" d="M1.4072912811497114 -2.8320651438240243 L1.0016436274056053 -2.5450230984842883 L0.8124999999999974 -2.411182379396258 L0.8124999999999973 -0.16419760782265477 L1.4072912811497114 -0.585080372250421 z"/>
<path fill="#3c3c3c" stroke="#3c3c3c" d="M1.407291281149712 -2.832065143824024 L1.4072912811497122 -0.5850803722504202 L1.6249999999999998 -1.160016920473771 L1.6249999999999996 -3.4070016920473747 L1.4765226537441034 -3.0148949661590496 z"/>
<path fill="#3c3c3c" stroke="#3c3c3c" d="M4.942154105482874 4.38007412117801 L4.683823529411764 4.330967851099831 L4.683823529411764 6.577952622673434 L5.496183831522173 6.732374855623685 L5.496183831522173 4.485390084050081 z"/>
<path fill="#3c3c3c" stroke="#3c3c3c" d="M5.496183831522173 4.485390084050082 L5.496183831522173 6.732374855623685 L6.3088231956678955 6.578689584262159 L6.3088231956678955 4.331704812688556 L5.754603149320513 4.436518167757117 z"/>
<path fill="#3c3c3c" stroke="#3c3c3c" d="M6.903995560488345 3.9110918813651323 L6.498088007680798 4.197949900527707 L6.308823195667896 4.331704812688556 L6.308823195667897 6.57868958426216 L6.903995560488345 6.158076652938736 z"/>
<path fill="#3c3c3c" stroke="#3c3c3c" d="M6.973392513181325 3.7282934940335957 L6.903995560488345 3.911091881365132 L6.903995560488346 6.158076652938736 L7.1222249714725585 5.583238956927614 L7.1222249714725585 3.3362541853540097 z"/>
<path fill="#3c3c3c" stroke="#3c3c3c" d="M7.1222249714725585 3.3362541853540097 L7.1222249714725585 5.583238956927614 L6.905037034182597 5.00820379265394 L6.905037034182597 2.761219021080336 L7.0531592074143505 3.1533930031149815 z"/>
<path fill="#3c3c3c" stroke="#3c3c3c" d="M6.905037034182598 2.761219021080336 L6.905037034182597 5.00820379265394 L6.310627081021089 4.587051368004343 L6.310627081021088 2.3400665964307397 L6.7160146690772375 2.6272925500417643 z"/>
<path fill="#3c3c3c" stroke="#3c3c3c" d="M4.090455049944506 5.006927337739041 L3.8722256389602925 5.581765033750164 L3.872225638960292 3.3347802621765603 L4.021058097251526 2.942740953496975 L4.090455049944506 2.7599425661654378 z"/>
<path fill="#3c3c3c" stroke="#3c3c3c" d="M5.498266778910677 2.1856443634804874 L5.558499810363526 2.197094109597017 L6.052296504949976 2.290960326352558 L6.310627081021087 2.340066596430738 L6.310627081021087 4.58705136800434 L5.558499810363526 4.4440788811706184 L5.498266778910677 4.432629135054088 z"/>
<path fill="#3c3c3c" stroke="#3c3c3c" d="M5.498266778910677 4.432629135054091 L4.685627414764955 4.5863144064156165 L4.685627414764955 2.3393296348420143 L5.239847461112338 2.234516279773454 L5.498266778910677 2.1856443634804887 z"/>
<path fill="#3c3c3c" stroke="#3c3c3c" d="M4.496362602752051 2.473084547002863 L4.685627414764954 2.3393296348420143 L4.685627414764953 4.586314406415617 L4.090455049944505 5.006927337739041 L4.090455049944506 2.7599425661654378 z"/>
<path fill="#3c3c3c" stroke="#3c3c3c" d="M4.089413576250253 3.909815426450235 L3.9412914030185 3.517641444415589 L3.8722256389602925 3.3347802621765608 L3.872225638960293 5.581765033750164 L4.089413576250254 6.156800198023839 z"/>
<path fill="#3c3c3c" stroke="#3c3c3c" d="M4.278435941355615 4.043741897488807 L4.134821580314118 3.9419879883467535 L4.089413576250254 3.909815426450235 L4.089413576250254 6.156800198023839 L4.134821580314119 6.188972759920357 L4.6838235294117645 6.577952622673436 L4.6838235294117645 4.330967851099832 z"/>
<path fill="#3c3c3c" stroke="#3c3c3c" d="M-4.657882365273279 2.358937276739042 L-4.279719861957407 2.626187654004591 L-4.090455049944504 2.75994256616544 L-4.090455049944504 5.006927337739044 L-4.657882365273279 4.605922048312646 L-4.6856274147649515 4.586314406415619 L-4.6856274147649515 2.3393296348420156 z"/>
<path fill="#3c3c3c" stroke="#3c3c3c" d="M-6.905037034182597 2.7612190210803353 L-6.499649446126448 2.4739930674693107 L-6.310627081021088 2.340066596430739 L-6.310627081021089 4.587051368004342 L-6.905037034182598 5.008203792653939 z"/>
<path fill="#3c3c3c" stroke="#3c3c3c" d="M-6.974102798240805 2.944080203319364 L-6.905037034182597 2.7612190210803353 L-6.905037034182597 5.00820379265394 L-7.1222249714725585 5.583238956927613 L-7.1222249714725585 3.3362541853540093 z"/>
<path fill="#3c3c3c" stroke="#3c3c3c" d="M-7.1222249714725585 3.3362541853540097 L-7.1222249714725585 5.583238956927613 L-6.903995560488346 6.158076652938735 L-6.903995560488346 3.9110918813651323 L-7.052828018779579 3.5190525726855464 z"/>
<path fill="#3c3c3c" stroke="#3c3c3c" d="M-6.903995560488346 6.158076652938736 L-6.308823195667897 6.57868958426216 L-6.308823195667897 4.331704812688556 L-6.714730748475442 4.044846793525981 L-6.903995560488346 3.9110918813651323 z"/>
<path fill="#3c3c3c" stroke="#3c3c3c" d="M-5.623263693066199 4.461356910335306 L-6.050403877869557 4.38057672898152 L-6.308823195667896 4.331704812688555 L-6.308823195667896 6.57868958426216 L-5.623263693066199 6.7083416819089114 L-5.496183831522173 6.732374855623687 L-5.496183831522173 4.485390084050081 z"/>
<path fill="#3c3c3c" stroke="#3c3c3c" d="M-5.496183831522174 4.485390084050082 L-5.496183831522174 6.732374855623684 L-4.6838235294117645 6.577952622673434 L-4.6838235294117645 4.330967851099832 L-5.237853255451064 4.436283813971903 z"/>
<path fill="#3c3c3c" stroke="#3c3c3c" d="M-4.683823529411765 4.330967851099832 L-4.683823529411765 6.577952622673436 L-4.089413576250255 6.15680019802384 L-4.089413576250255 3.9098154264502365 L-4.494801164306405 4.19704138006126 z"/>
<path fill="#3c3c3c" stroke="#3c3c3c" d="M-4.089413576250254 3.909815426450236 L-4.089413576250255 6.1568001980238405 L-3.8722256389602925 5.581765033750166 L-3.8722256389602925 3.3347802621765625 L-4.020347812192047 3.726954244211208 z"/>
<path fill="#3c3c3c" stroke="#3c3c3c" d="M-3.872225638960292 3.3347802621765625 L-3.8722256389602925 5.581765033750166 L-4.090455049944504 5.006927337739043 L-4.090455049944505 2.75994256616544 L-3.941622591653272 3.1519818748450255 z"/>
<path fill="#3c3c3c" stroke="#3c3c3c" d="M-4.944046732563292 2.2904577185490487 L-4.685627414764952 2.3393296348420143 L-4.685627414764952 4.586314406415619 L-5.498266778910676 4.432629135054093 L-5.498266778910676 2.1856443634804874 z"/>
<path fill="#3c3c3c" stroke="#3c3c3c" d="M-5.498266778910675 2.1856443634804874 L-5.498266778910675 4.432629135054092 L-6.310627081021086 4.587051368004342 L-6.310627081021086 2.3400665964307374 L-5.756597354981786 2.234750633558667 z"/>
<path fill="#3c3c3c" stroke="#3c3c3c" d="M9.3168558969895 1.9320032602751704 L9.525 3.3333333333333344 L9.525 1.0863485617597304 L9.3168558969895 -0.3149815112984335 z"/>
<path fill="#3c3c3c" stroke="#3c3c3c" d="M8.701520484045773 0.5919180357373889 L9.3168558969895 1.9320032602751704 L9.3168558969895 -0.3149815112984335 L8.701520484045773 -1.6550667358362152 z"/>
<path fill="#3c3c3c" stroke="#3c3c3c" d="M9.524999999999999 3.3333333333333344 L9.316855896989496 4.734663406391503 L9.316855896989496 2.487678634817899 L9.524999999999999 1.0863485617597306 z"/>
<path fill="#3c3c3c" stroke="#3c3c3c" d="M7.705886871421375 -0.6283541855253518 L8.701520484045773 0.5919180357373889 L8.701520484045773 -1.6550667358362148 L7.705886871421375 -2.875338957098956 z"/>
<path fill="#3c3c3c" stroke="#3c3c3c" d="M6.373469025568126 -1.675481651928095 L7.7058868714213755 -0.6283541855253523 L7.7058868714213755 -2.8753389570989554 L6.373469025568126 -3.9224664235016986 z"/>
<path fill="#3c3c3c" stroke="#3c3c3c" d="M4.762500000000005 -2.5036998685139773 L6.3734690255681254 -1.6754816519280955 L6.373469025568126 -3.9224664235016973 L4.762500000000004 -4.750684640087581 z"/>
<path fill="#3c3c3c" stroke="#3c3c3c" d="M2.943386871421376 -3.076811724986263 L4.7625 -2.5036998685139813 L4.7625 -4.750684640087584 L2.943386871421376 -5.323796496559867 z"/>
<path fill="#3c3c3c" stroke="#3c3c3c" d="M0.9956336126244015 -3.3697694831213014 L2.943386871421376 -3.0768117249862637 L2.943386871421376 -5.323796496559866 L0.9956336126244015 -5.616754254694904 z"/>
<path fill="#3c3c3c" stroke="#3c3c3c" d="M-0.9956336126243971 -3.3697694831212996 L0.9956336126244016 -3.3697694831212996 L0.9956336126244016 -5.616754254694903 L-0.9956336126243971 -5.616754254694903 z"/>
<path fill="#3c3c3c" stroke="#3c3c3c" d="M-7.705886871421374 -0.6283541855253544 L-6.373469025568124 -1.6754816519280977 L-6.373469025568124 -3.9224664235017013 L-7.705886871421373 -2.875338957098959 z"/>
<path fill="#3c3c3c" stroke="#3c3c3c" d="M-8.701520484045773 0.5919180357373862 L-7.705886871421374 -0.6283541855253547 L-7.705886871421373 -2.875338957098959 L-8.701520484045773 -1.6550667358362172 z"/>
<path fill="#3c3c3c" stroke="#3c3c3c" d="M-9.316855896989498 1.9320032602751658 L-8.701520484045773 0.5919180357373864 L-8.701520484045773 -1.6550667358362177 L-9.316855896989498 -0.31498151129843827 z"/>
<path fill="#3c3c3c" stroke="#3c3c3c" d="M-9.524999999999999 3.3333333333333313 L-9.316855896989498 1.9320032602751658 L-9.316855896989498 -0.3149815112984381 L-9.524999999999999 1.0863485617597275 z"/>
<path fill="#3c3c3c" stroke="#3c3c3c" d="M-2.9433868714213713 -3.0768117249862623 L-0.995633612624397 -3.3697694831212988 L-0.995633612624397 -5.6167542546949045 L-2.9433868714213713 -5.323796496559868 z"/>
<path fill="#3c3c3c" stroke="#3c3c3c" d="M-4.7624999999999975 -2.5036998685139804 L-2.9433868714213713 -3.0768117249862623 L-2.9433868714213713 -5.323796496559868 L-4.7624999999999975 -4.750684640087585 z"/>
<path fill="#3c3c3c" stroke="#3c3c3c" d="M-8.701520484045774 6.074748630929276 L-9.316855896989498 4.734663406391497 L-9.316855896989498 2.487678634817893 L-8.701520484045776 3.827763859355673 z"/>
<path fill="#3c3c3c" stroke="#3c3c3c" d="M-7.705886871421376 7.295020852192018 L-8.701520484045774 6.074748630929277 L-8.701520484045774 3.8277638593556733 L-7.705886871421376 5.048036080618415 z"/>
<path fill="#3c3c3c" stroke="#3c3c3c" d="M-9.316855896989498 4.734663406391497 L-9.524999999999999 3.3333333333333317 L-9.524999999999999 1.0863485617597275 L-9.316855896989498 2.487678634817893 z"/>
<path fill="#3c3c3c" stroke="#3c3c3c" d="M-6.373469025568129 8.342148318594761 L-7.705886871421376 7.295020852192019 L-7.705886871421376 5.048036080618415 L-6.373469025568128 6.0951635470211585 z"/>
<path fill="#3c3c3c" stroke="#3c3c3c" d="M-4.7625000000000055 9.170366535180644 L-6.373469025568128 8.342148318594761 L-6.373469025568128 6.0951635470211585 L-4.762500000000006 6.923381763607042 z"/>
<path fill="#3c3c3c" stroke="#3c3c3c" d="M-2.943386871421379 9.743478391652928 L-4.7625000000000055 9.170366535180644 L-4.7625000000000055 6.923381763607042 L-2.943386871421379 7.496493620079326 z"/>
<path fill="#3c3c3c" stroke="#3c3c3c" d="M-0.995633612624406 10.036436149787967 L-2.943386871421379 9.74347839165293 L-2.943386871421379 7.496493620079326 L-0.995633612624406 7.7894513782143635 z"/>
<path fill="#3c3c3c" stroke="#3c3c3c" d="M0.9956336126243954 10.036436149787967 L-0.9956336126244061 10.036436149787967 L-0.9956336126244061 7.789451378214363 L0.9956336126243954 7.789451378214363 z"/>
<path fill="#3c3c3c" stroke="#3c3c3c" d="M-6.373469025568124 -1.6754816519280968 L-4.762500000000001 -2.5036998685139773 L-4.762500000000001 -4.750684640087583 L-6.373469025568125 -3.922466423501701 z"/>
<path fill="#3c3c3c" stroke="#3c3c3c" d="M2.9433868714213687 9.743478391652932 L0.9956336126243953 10.036436149787967 L0.9956336126243953 7.7894513782143635 L2.9433868714213687 7.496493620079328 z"/>
<path fill="#3c3c3c" stroke="#3c3c3c" d="M4.762499999999993 9.170366535180651 L2.9433868714213687 9.743478391652932 L2.9433868714213687 7.496493620079328 L4.762499999999993 6.923381763607048 z"/>
<path fill="#3c3c3c" stroke="#3c3c3c" d="M6.373469025568121 8.342148318594766 L4.762499999999994 9.170366535180651 L4.762499999999993 6.923381763607048 L6.373469025568121 6.095163547021163 z"/>
<path fill="#3c3c3c" stroke="#3c3c3c" d="M7.705886871421367 7.295020852192027 L6.373469025568121 8.342148318594766 L6.373469025568121 6.095163547021162 L7.7058868714213675 5.048036080618424 z"/>
<path fill="#3c3c3c" stroke="#3c3c3c" d="M9.316855896989496 4.734663406391503 L8.70152048404577 6.074748630929285 L8.70152048404577 3.8277638593556818 L9.316855896989496 2.487678634817899 z"/>
<path fill="#3c3c3c" stroke="#3c3c3c" d="M8.701520484045771 6.074748630929285 L7.705886871421368 7.295020852192028 L7.7058868714213675 5.048036080618424 L8.70152048404577 3.8277638593556813 z"/>
<path fill="#3c3c3c" stroke="#3c3c3c" d="M9.3168558969895 -0.31498151129843355 L9.525 1.0863485617597304 L9.316855896989498 2.487678634817899 L8.701520484045771 3.8277638593556818 L7.705886871421368 5.048036080618424 L6.373469025568122 6.095163547021163 L4.762499999999994 6.923381763607048 L2.943386871421369 7.496493620079328 L0.9956336126243954 7.7894513782143635 L-0.9956336126244061 7.7894513782143635 L-2.9433868714213793 7.496493620079326 L-4.762500000000007 6.923381763607042 L-6.373469025568129 6.0951635470211585 L-7.705886871421377 5.048036080618415 L-8.701520484045776 3.827763859355673 L-9.3168558969895 2.4876786348178928 L-9.525 1.0863485617597275 L-9.316855896989498 -0.31498151129843804 L-8.701520484045773 -1.6550667358362174 L-7.705886871421373 -2.875338957098959 L-6.373469025568123 -3.922466423501701 L-4.762499999999998 -4.7506846400875835 L-2.943386871421372 -5.323796496559865 L-0.9956336126243971 -5.616754254694902 L0.9956336126244016 -5.616754254694902 L2.9433868714213762 -5.323796496559863 L4.762500000000001 -4.750684640087582 L6.373469025568125 -3.922466423501699 L7.705886871421375 -2.875338957098956 L8.701520484045773 -1.655066735836215 M-6.050403877869558 4.380576728981521 L-5.623263693066199 4.461356910335307 L-5.496183831522175 4.485390084050082 L-5.237853255451064 4.436283813971903 L-4.6838235294117645 4.330967851099832 L-4.494801164306405 4.19704138006126 L-4.089413576250254 3.909815426450236 L-4.020347812192046 3.7269542442112082 L-3.8722256389602925 3.3347802621765625 L-3.941622591653272 3.1519818748450255 L-4.090455049944505 2.7599425661654395 L-4.279719861957407 2.6261876540045908 L-4.65788236527328 2.3589372767390424 L-4.685627414764952 2.339329634842015 L-4.944046732563293 2.29045771854905 L-5.4982667789106765 2.1856443634804887 L-5.756597354981786 2.234750633558668 L-6.310627081021087 2.340066596430739 L-6.499649446126447 2.4739930674693107 L-6.905037034182596 2.7612190210803353 L-6.974102798240804 2.9440802033193636 L-7.1222249714725585 3.3362541853540093 L-7.052828018779579 3.5190525726855464 L-6.903995560488346 3.9110918813651323 L-6.714730748475443 4.044846793525981 L-6.308823195667897 4.331704812688556 z"/>
<path fill="#3c3c3c" stroke="#3c3c3c" d="M9.525 3.3333333333333344 L9.3168558969895 1.9320032602751702 L8.701520484045773 0.5919180357373889 L7.705886871421375 -0.6283541855253517 L6.373469025568125 -1.675481651928095 L4.762500000000001 -2.503699868513978 L2.9433868714213762 -3.0768117249862597 L0.9956336126244016 -3.369769483121298 L-0.9956336126243971 -3.369769483121298 L-2.943386871421372 -3.0768117249862614 L-4.762499999999998 -2.503699868513979 L-6.373469025568123 -1.6754816519280968 L-7.705886871421373 -0.6283541855253548 L-8.701520484045773 0.5919180357373864 L-9.316855896989498 1.9320032602751658 L-9.525 3.3333333333333317 L-9.3168558969895 4.734663406391497 L-8.701520484045776 6.074748630929276 L-7.705886871421377 7.295020852192018 L-6.373469025568129 8.342148318594761 L-4.762500000000007 9.170366535180646 L-2.9433868714213793 9.743478391652928 L-0.9956336126244061 10.036436149787967 L0.9956336126243954 10.036436149787967 L2.943386871421369 9.74347839165293 L4.762499999999994 9.170366535180651 L6.373469025568122 8.342148318594766 L7.705886871421368 7.295020852192028 L8.701520484045771 6.074748630929284 L9.316855896989498 4.734663406391503 M6.308823195667897 6.57868958426216 L5.496183831522174 6.732374855623687 L4.683823529411764 6.577952622673436 L4.134821580314117 6.188972759920357 L4.089413576250253 6.156800198023839 L3.8722256389602925 5.581765033750164 L4.090455049944506 5.006927337739041 L4.685627414764955 4.586314406415618 L5.498266778910678 4.432629135054093 L5.558499810363526 4.444078881170622 L6.310627081021088 4.587051368004343 L6.905037034182597 5.00820379265394 L7.1222249714725585 5.583238956927613 L6.903995560488346 6.158076652938736 z"/>
<path fill="#3c3c3c" stroke="#3c3c3c" d="M3.9999999999999996 3.333333333333335 L3.783268966802537 4.252381171041619 L3.7832689668025368 -2.8136086766741157 L3.9999999999999996 -3.7326565143824 z"/>
<path fill="#3c3c3c" stroke="#3c3c3c" d="M3.7832689668025385 2.4142854956250526 L4 3.333333333333335 L4 -3.7326565143824006 L3.7832689668025385 -4.6517043520906824 z"/>
<path fill="#3c3c3c" stroke="#3c3c3c" d="M3.156562037585575 1.5948307516289755 L3.7832689668025394 2.4142854956250526 L3.783268966802539 -4.651704352090682 L3.1565620375855743 -5.471159096086759 z"/>
<path fill="#3c3c3c" stroke="#3c3c3c" d="M2.187792632489708 0.9637697380075191 L3.1565620375855747 1.5948307516289755 L3.156562037585575 -5.471159096086759 L2.187792632489709 -6.102220109708216 z"/>
<path fill="#3c3c3c" stroke="#3c3c3c" d="M0.9819419485631967 0.5894877075070856 L2.1877926324897072 0.9637697380075154 L2.1877926324897072 -6.102220109708218 L0.9819419485631967 -6.476502140208648 z"/>
<path fill="#3c3c3c" stroke="#3c3c3c" d="M-3.5178950048259576 1.9861847731431201 L-2.709126286502965 1.2508985486057296 L-2.7091262865029644 -5.815091299110006 L-3.5178950048259567 -5.079805074572614 z"/>
<path fill="#3c3c3c" stroke="#3c3c3c" d="M-1.606781698611877 0.7412764452985123 L-0.3303173818893289 0.5125439257164868 L-0.3303173818893289 -6.553445921999249 L-1.606781698611877 -6.324713402417224 z"/>
<path fill="#3c3c3c" stroke="#3c3c3c" d="M-2.7091262865029635 1.2508985486057291 L-1.6067816986118773 0.7412764452985119 L-1.6067816986118773 -6.324713402417223 L-2.7091262865029635 -5.815091299110006 z"/>
<path fill="#3c3c3c" stroke="#3c3c3c" d="M-0.3303173818893289 0.5125439257164838 L0.9819419485631967 0.5894877075070852 L0.9819419485631967 -6.476502140208649 L-0.3303173818893289 -6.55344592199925 z"/>
<path fill="#3c3c3c" stroke="#3c3c3c" d="M-3.5178950048259567 4.680481893523548 L-3.9454452136108897 3.7992112193259087 L-3.9454452136108893 -3.2667786283898264 L-3.5178950048259563 -2.3855079541921875 z"/>
<path fill="#3c3c3c" stroke="#3c3c3c" d="M-3.9454452136108897 3.799211219325909 L-3.9454452136108893 2.867455447340759 L-3.9454452136108893 -4.198534400374975 L-3.9454452136108897 -3.2667786283898264 z"/>
<path fill="#3c3c3c" stroke="#3c3c3c" d="M-3.945445213610889 2.867455447340759 L-3.517895004825956 1.9861847731431206 L-3.517895004825956 -5.079805074572614 L-3.9454452136108893 -4.198534400374975 z"/>
<path fill="#3c3c3c" stroke="#3c3c3c" d="M-2.709126286502965 5.415768118060939 L-3.5178950048259567 4.680481893523548 L-3.5178950048259563 -2.385507954192187 L-2.709126286502965 -1.650221729654796 z"/>
<path fill="#3c3c3c" stroke="#3c3c3c" d="M-1.606781698611879 5.925390221368155 L-2.7091262865029653 5.415768118060938 L-2.7091262865029653 -1.6502217296547974 L-1.606781698611879 -1.1405996263475797 z"/>
<path fill="#3c3c3c" stroke="#3c3c3c" d="M-0.33031738188933063 6.154122740950181 L-1.606781698611879 5.925390221368155 L-1.606781698611879 -1.1405996263475793 L-0.33031738188933063 -0.9118671067655532 z"/>
<path fill="#3c3c3c" stroke="#3c3c3c" d="M0.9819419485631969 6.07717895915958 L-0.33031738188933063 6.154122740950182 L-0.33031738188933063 -0.9118671067655544 L0.9819419485631969 -0.9888108885561558 z"/>
<path fill="#3c3c3c" stroke="#3c3c3c" d="M3.7832689668025368 4.252381171041619 L3.156562037585571 5.071835915037696 L3.1565620375855707 -1.9941539326780389 L3.7832689668025368 -2.8136086766741157 z"/>
<path fill="#3c3c3c" stroke="#3c3c3c" d="M2.187792632489706 5.702896928659151 L0.9819419485631969 6.07717895915958 L0.9819419485631969 -0.9888108885561553 L2.187792632489706 -1.3630929190565846 z"/>
<path fill="#3c3c3c" stroke="#3c3c3c" d="M3.1565620375855703 5.071835915037696 L2.187792632489705 5.702896928659151 L2.1877926324897055 -1.3630929190565826 L3.1565620375855707 -1.9941539326780382 z"/>
<path fill="#3c3c3c" stroke="#3c3c3c" d="M3.7832689668025385 -4.6517043520906824 L4 -3.7326565143824 L3.783268966802537 -2.8136086766741157 L3.1565620375855716 -1.9941539326780386 L2.1877926324897063 -1.363092919056583 L0.981941948563197 -0.9888108885561538 L-0.3303173818893307 -0.9118671067655524 L-1.6067816986118792 -1.1405996263475786 L-2.7091262865029657 -1.6502217296547963 L-3.517895004825957 -2.3855079541921875 L-3.9454452136108897 -3.2667786283898264 L-3.9454452136108893 -4.198534400374975 L-3.517895004825956 -5.079805074572614 L-2.709126286502964 -5.815091299110005 L-1.6067816986118775 -6.324713402417222 L-0.33031738188932896 -6.5534459219992485 L0.9819419485631968 -6.476502140208646 L2.1877926324897077 -6.102220109708217 L3.1565620375855743 -5.471159096086759 z"/>
<path fill="#3c3c3c" stroke="#3c3c3c" d="M4 3.333333333333335 L3.7832689668025385 2.414285495625053 L3.1565620375855743 1.5948307516289757 L2.1877926324897077 0.9637697380075182 L0.9819419485631968 0.5894877075070883 L-0.33031738188932896 0.5125439257164869 L-1.6067816986118775 0.7412764452985124 L-2.709126286502964 1.2508985486057298 L-3.517895004825956 1.9861847731431204 L-3.9454452136108893 2.867455447340759 L-3.9454452136108897 3.799211219325909 L-3.517895004825957 4.680481893523548 L-2.7091262865029657 5.415768118060939 L-1.6067816986118792 5.925390221368156 L-0.3303173818893307 6.154122740950182 L0.981941948563197 6.077178959159581 L2.1877926324897063 5.702896928659152 L3.1565620375855716 5.071835915037696 L3.783268966802537 4.252381171041619 z"/>
</svg>