<?xml version="1.0" encoding="UTF-8"?>
<!-- Generated by jsxcad -->
<!DOCTYPE svg PUBLIC "-//W3C//DTD SVG 1.1 Tiny//EN" "http://www.w3.org/Graphics/SVG/1.1/DTD/svg11-tiny.dtd">
<svg baseProfile="tiny" height="29.066666666666684mm" width="28.94365591397851mm" viewBox="-14.471827956989255 -14.533333333333342 28.94365591397851 29.066666666666684" version="1.1" stroke="black" stroke-width=".1" fill="none" xmlns="http://www.w3.org/2000/svg">
<path fill="#3c3c3c" stroke="#3c3c3c" d="M4.941666666666666 -0.8125 L4.941666666666666 -0.8125 L5.5375 -1.4083333333333332 L5.5375 -1.4083333333333332 z"/>
<path fill="#3c3c3c" stroke="#3c3c3c" d="M6.35 -1.625 L5.5375 -1.4083333333333332 L5.5375 -1.4083333333333332 L6.35 -1.625 z"/>
<path fill="#3c3c3c" stroke="#3c3c3c" d="M4.941666666666666 0.8125 L5.5375 1.4083333333333332 L5.5375 1.4083333333333332 L4.941666666666666 0.8125 z"/>
<path fill="#3c3c3c" stroke="#3c3c3c" d="M4.941666666666666 -0.8125 L4.725 0 L4.725 0 L4.941666666666666 -0.8125 z"/>
<path fill="#3c3c3c" stroke="#3c3c3c" d="M4.941666666666666 0.8125 L4.941666666666666 0.8125 L4.725 0 L4.725 0 z"/>
<path fill="#3c3c3c" stroke="#3c3c3c" d="M7.1625 -1.4083333333333332 L7.758333333333333 -0.8125 L7.758333333333333 -0.8125 L7.1625 -1.4083333333333332 z"/>
<path fill="#3c3c3c" stroke="#3c3c3c" d="M7.758333333333333 -0.8125 L7.975 0 L7.975 0 L7.758333333333333 -0.8125 z"/>
<path fill="#3c3c3c" stroke="#3c3c3c" d="M7.758333333333333 0.8125 L7.975 0 L7.975 0 L7.758333333333333 0.8125 z"/>
<path fill="#3c3c3c" stroke="#3c3c3c" d="M7.1625 1.4083333333333332 L7.758333333333333 0.8125 L7.758333333333333 0.8125 L7.1625 1.4083333333333332 z"/>
<path fill="#3c3c3c" stroke="#3c3c3c" d="M6.35 1.625 L7.1625 1.4083333333333332 L7.1625 1.4083333333333332 L6.35 1.625 z"/>
<path fill="#3c3c3c" stroke="#3c3c3c" d="M-3.180086940436552 -7.123127081021087 L-2.3660238623751386 -6.905558638549759 L-2.3660238623751386 -6.905558638549759 L-3.180086940436552 -7.123127081021087 z"/>
<path fill="#3c3c3c" stroke="#3c3c3c" d="M-3.9919256381798 -6.903995560488346 L-3.180086940436552 -7.123127081021087 L-3.180086940436552 -7.123127081021087 L-3.9919256381798 -6.903995560488346 z"/>
<path fill="#3c3c3c" stroke="#3c3c3c" d="M-4.8044256381798 -5.495662227155012 L-4.586857195708472 -6.309725305216426 L-4.586857195708472 -6.309725305216426 L-4.8044256381798 -5.495662227155012 z"/>
<path fill="#3c3c3c" stroke="#3c3c3c" d="M-2.3660238623751386 -6.905558638549759 L-2.3660238623751386 -6.905558638549759 L-1.7717536071032185 -6.310627081021087 L-1.7717536071032185 -6.310627081021087 z"/>
<path fill="#3c3c3c" stroke="#3c3c3c" d="M-3.9910238623751386 -4.0888919718830925 L-4.5852941176470585 -4.6838235294117645 L-4.5852941176470585 -4.6838235294117645 L-3.9910238623751386 -4.0888919718830925 z"/>
<path fill="#3c3c3c" stroke="#3c3c3c" d="M-4.508178894051349 -6.388316151202749 L-3.9919256381798 -6.903995560488346 L-3.9919256381798 -6.903995560488346 L-4.586857195708472 -6.309725305216426 L-4.586857195708472 -6.309725305216426 z"/>
<path fill="#3c3c3c" stroke="#3c3c3c" d="M6.35 -1.625 L6.35 -1.625 L7.1625 -1.4083333333333332 L7.1625 -1.4083333333333332 z"/>
<path fill="#3c3c3c" stroke="#3c3c3c" d="M-1.7701905290418052 -4.684725305216426 L-1.5526220865704772 -5.498788383277839 L-1.5526220865704772 -5.498788383277839 L-1.7701905290418052 -4.684725305216426 z"/>
<path fill="#3c3c3c" stroke="#3c3c3c" d="M-1.5526220865704772 -5.498788383277839 L-1.7717536071032185 -6.310627081021087 L-1.7717536071032185 -6.310627081021087 L-1.5526220865704772 -5.498788383277839 z"/>
<path fill="#3c3c3c" stroke="#3c3c3c" d="M-1.7701905290418052 -4.684725305216426 L-2.365122086570477 -4.090455049944506 L-2.365122086570477 -4.090455049944506 L-1.7701905290418052 -4.684725305216426 z"/>
<path fill="#3c3c3c" stroke="#3c3c3c" d="M-3.9910238623751386 -4.0888919718830925 L-3.1769607843137253 -3.8713235294117645 L-3.1769607843137253 -3.8713235294117645 L-3.9910238623751386 -4.0888919718830925 z"/>
<path fill="#3c3c3c" stroke="#3c3c3c" d="M-3.1769607843137253 -3.8713235294117645 L-2.365122086570477 -4.090455049944506 L-2.365122086570477 -4.090455049944506 L-3.1769607843137253 -3.8713235294117645 z"/>
<path fill="#3c3c3c" stroke="#3c3c3c" d="M-4.8044256381798 -5.495662227155012 L-4.5852941176470585 -4.6838235294117645 L-4.5852941176470585 -4.6838235294117645 L-4.8044256381798 -5.495662227155012 z"/>
<path fill="#3c3c3c" stroke="#3c3c3c" d="M-3.9910238623751386 4.0888919718830925 L-4.5852941176470585 4.6838235294117645 L-4.5852941176470585 4.6838235294117645 L-3.9910238623751386 4.0888919718830925 z"/>
<path fill="#3c3c3c" stroke="#3c3c3c" d="M-4.5852941176470585 4.6838235294117645 L-4.8044256381798 5.495662227155012 L-4.8044256381798 5.495662227155012 L-4.5852941176470585 4.6838235294117645 z"/>
<path fill="#3c3c3c" stroke="#3c3c3c" d="M-4.586857195708472 6.309725305216426 L-4.586857195708472 6.309725305216426 L-4.8044256381798 5.495662227155012 L-4.8044256381798 5.495662227155012 z"/>
<path fill="#3c3c3c" stroke="#3c3c3c" d="M-3.9919256381798 6.903995560488346 L-3.180086940436552 7.123127081021087 L-3.180086940436552 7.123127081021087 L-3.9919256381798 6.903995560488346 z"/>
<path fill="#3c3c3c" stroke="#3c3c3c" d="M-4.181113873473917 6.715017619311875 L-3.9919256381798 6.903995560488346 L-3.9919256381798 6.903995560488346 L-4.586857195708472 6.309725305216426 L-4.586857195708472 6.309725305216426 z"/>
<path fill="#3c3c3c" stroke="#3c3c3c" d="M-3.9910238623751386 4.0888919718830925 L-3.1769607843137253 3.8713235294117645 L-3.1769607843137253 3.8713235294117645 L-3.9910238623751386 4.0888919718830925 z"/>
<path fill="#3c3c3c" stroke="#3c3c3c" d="M-2.365122086570477 4.090455049944506 L-2.365122086570477 4.090455049944506 L-1.7701905290418052 4.684725305216426 L-1.7701905290418052 4.684725305216426 z"/>
<path fill="#3c3c3c" stroke="#3c3c3c" d="M-1.7701905290418052 4.684725305216426 L-1.5526220865704772 5.498788383277839 L-1.5526220865704772 5.498788383277839 L-1.7701905290418052 4.684725305216426 z"/>
<path fill="#3c3c3c" stroke="#3c3c3c" d="M-2.3660238623751386 6.905558638549759 L-3.180086940436552 7.123127081021087 L-3.180086940436552 7.123127081021087 L-2.3660238623751386 6.905558638549759 z"/>
<path fill="#3c3c3c" stroke="#3c3c3c" d="M-1.5526220865704772 5.498788383277839 L-1.5526220865704772 5.498788383277839 L-1.7717536071032185 6.310627081021087 L-1.7717536071032185 6.310627081021087 z"/>
<path fill="#3c3c3c" stroke="#3c3c3c" d="M-3.1769607843137253 3.8713235294117645 L-2.365122086570477 4.090455049944506 L-2.365122086570477 4.090455049944506 L-3.1769607843137253 3.8713235294117645 z"/>
<path fill="#3c3c3c" stroke="#3c3c3c" d="M1.986111111111111 -9.316666666666666 L0 -9.533333333333333 L0 -9.533333333333333 L1.986111111111111 -9.316666666666666 z"/>
<path fill="#3c3c3c" stroke="#3c3c3c" d="M3.88395061728395 -8.704347826086956 L1.986111111111111 -9.316666666666666 L1.986111111111111 -9.316666666666666 L3.88395061728395 -8.704347826086956 z"/>
<path fill="#3c3c3c" stroke="#3c3c3c" d="M5.607843137254902 -7.717460317460317 L3.88395061728395 -8.704347826086956 L3.88395061728395 -8.704347826086956 L5.607843137254902 -7.717460317460317 z"/>
<path fill="#3c3c3c" stroke="#3c3c3c" d="M7.081904761904761 -6.388316151202749 L5.607843137254902 -7.717460317460317 L5.607843137254902 -7.717460317460317 L7.081904761904761 -6.388316151202749 z"/>
<path fill="#3c3c3c" stroke="#3c3c3c" d="M9.471827956989246 -1.0035087719298244 L9.068292682926828 -2.9507936507936505 L9.068292682926828 -2.9507936507936505 L9.471827956989246 -1.0035087719298244 z"/>
<path fill="#3c3c3c" stroke="#3c3c3c" d="M8.26222222222222 -4.766666666666667 L7.081904761904761 -6.388316151202749 L7.081904761904761 -6.388316151202749 L8.26222222222222 -4.766666666666667 z"/>
<path fill="#3c3c3c" stroke="#3c3c3c" d="M9.068292682926828 -2.9507936507936505 L8.26222222222222 -4.766666666666667 L8.26222222222222 -4.766666666666667 L9.068292682926828 -2.9507936507936505 z"/>
<path fill="#3c3c3c" stroke="#3c3c3c" d="M9.471827956989246 1.0035087719298244 L9.471827956989246 -1.0035087719298244 L9.471827956989246 -1.0035087719298244 L9.471827956989246 1.0035087719298244 z"/>
<path fill="#3c3c3c" stroke="#3c3c3c" d="M9.068292682926828 2.9507936507936505 L9.471827956989246 1.0035087719298244 L9.471827956989246 1.0035087719298244 L9.068292682926828 2.9507936507936505 z"/>
<path fill="#3c3c3c" stroke="#3c3c3c" d="M8.26222222222222 4.766666666666667 L9.068292682926828 2.9507936507936505 L9.068292682926828 2.9507936507936505 L8.26222222222222 4.766666666666667 z"/>
<path fill="#3c3c3c" stroke="#3c3c3c" d="M7.081904761904761 6.388316151202749 L8.26222222222222 4.766666666666667 L8.26222222222222 4.766666666666667 L7.081904761904761 6.388316151202749 z"/>
<path fill="#3c3c3c" stroke="#3c3c3c" d="M5.607843137254902 7.717460317460317 L7.081904761904761 6.388316151202749 L7.081904761904761 6.388316151202749 L5.607843137254902 7.717460317460317 z"/>
<path fill="#3c3c3c" stroke="#3c3c3c" d="M3.88395061728395 8.704347826086956 L5.607843137254902 7.717460317460317 L5.607843137254902 7.717460317460317 L3.88395061728395 8.704347826086956 z"/>
<path fill="#3c3c3c" stroke="#3c3c3c" d="M1.986111111111111 9.316666666666666 L3.88395061728395 8.704347826086956 L3.88395061728395 8.704347826086956 L1.986111111111111 9.316666666666666 z"/>
<path fill="#3c3c3c" stroke="#3c3c3c" d="M0 9.533333333333333 L1.986111111111111 9.316666666666666 L1.986111111111111 9.316666666666666 L0 9.533333333333333 z"/>
<path fill="#3c3c3c" stroke="#3c3c3c" d="M-1.986111111111111 9.316666666666666 L0 9.533333333333333 L0 9.533333333333333 L-1.986111111111111 9.316666666666666 z"/>
<path fill="#3c3c3c" stroke="#3c3c3c" d="M-3.88395061728395 8.704347826086956 L-1.986111111111111 9.316666666666666 L-1.986111111111111 9.316666666666666 L-3.88395061728395 8.704347826086956 z"/>
<path fill="#3c3c3c" stroke="#3c3c3c" d="M-5.607843137254902 7.717460317460317 L-3.88395061728395 8.704347826086956 L-3.88395061728395 8.704347826086956 L-5.607843137254902 7.717460317460317 z"/>
<path fill="#3c3c3c" stroke="#3c3c3c" d="M-8.26222222222222 4.766666666666667 L-7.081904761904761 6.388316151202749 L-7.081904761904761 6.388316151202749 L-8.26222222222222 4.766666666666667 z"/>
<path fill="#3c3c3c" stroke="#3c3c3c" d="M-9.068292682926828 2.9507936507936505 L-8.26222222222222 4.766666666666667 L-8.26222222222222 4.766666666666667 L-9.068292682926828 2.9507936507936505 z"/>
<path fill="#3c3c3c" stroke="#3c3c3c" d="M-7.081904761904761 6.388316151202749 L-5.607843137254902 7.717460317460317 L-5.607843137254902 7.717460317460317 L-7.081904761904761 6.388316151202749 z"/>
<path fill="#3c3c3c" stroke="#3c3c3c" d="M-9.068292682926828 -2.9507936507936505 L-9.471827956989246 -1.0035087719298244 L-9.471827956989246 -1.0035087719298244 L-9.068292682926828 -2.9507936507936505 z"/>
<path fill="#3c3c3c" stroke="#3c3c3c" d="M-8.26222222222222 -4.766666666666667 L-9.068292682926828 -2.9507936507936505 L-9.068292682926828 -2.9507936507936505 L-8.26222222222222 -4.766666666666667 z"/>
<path fill="#3c3c3c" stroke="#3c3c3c" d="M-7.081904761904761 -6.388316151202749 L-8.26222222222222 -4.766666666666667 L-8.26222222222222 -4.766666666666667 L-7.081904761904761 -6.388316151202749 z"/>
<path fill="#3c3c3c" stroke="#3c3c3c" d="M-5.607843137254902 -7.717460317460317 L-7.081904761904761 -6.388316151202749 L-7.081904761904761 -6.388316151202749 L-5.607843137254902 -7.717460317460317 z"/>
<path fill="#3c3c3c" stroke="#3c3c3c" d="M-3.88395061728395 -8.704347826086956 L-5.607843137254902 -7.717460317460317 L-5.607843137254902 -7.717460317460317 L-3.88395061728395 -8.704347826086956 z"/>
<path fill="#3c3c3c" stroke="#3c3c3c" d="M-9.471827956989246 -1.0035087719298244 L-9.471827956989246 1.0035087719298244 L-9.471827956989246 1.0035087719298244 L-9.471827956989246 -1.0035087719298244 z"/>
<path fill="#3c3c3c" stroke="#3c3c3c" d="M-9.471827956989246 1.0035087719298244 L-9.068292682926828 2.9507936507936505 L-9.068292682926828 2.9507936507936505 L-9.471827956989246 1.0035087719298244 z"/>
<path fill="#3c3c3c" stroke="#3c3c3c" d="M-1.986111111111111 -9.316666666666666 L-3.88395061728395 -8.704347826086956 L-3.88395061728395 -8.704347826086956 L-1.986111111111111 -9.316666666666666 z"/>
<path fill="#3c3c3c" stroke="#3c3c3c" d="M0 -9.533333333333333 L-1.986111111111111 -9.316666666666666 L-1.986111111111111 -9.316666666666666 L0 -9.533333333333333 z"/>
<path fill="#3c3c3c" stroke="#3c3c3c" d="M5.5375 1.4083333333333332 L6.35 1.625 L6.35 1.625 L5.5375 1.4083333333333332 z"/>
<path fill="#3c3c3c" stroke="#3c3c3c" d="M-2.3660238623751386 6.905558638549759 L-1.7717536071032185 6.310627081021087 L-1.7717536071032185 6.310627081021087 L-2.3660238623751386 6.905558638549759 z"/>
<path fill="#3c3c3c" stroke="#3c3c3c" d="M1.986111111111111 -9.316666666666666 L0 -9.533333333333333 L-1.986111111111111 -9.316666666666666 L-3.88395061728395 -8.704347826086956 L-5.607843137254902 -7.717460317460317 L-7.081904761904761 -6.388316151202749 L-8.26222222222222 -4.766666666666667 L-9.068292682926828 -2.9507936507936505 L-9.471827956989246 -1.0035087719298244 L-9.471827956989246 1.0035087719298244 L-9.068292682926828 2.9507936507936505 L-8.26222222222222 4.766666666666667 L-7.081904761904761 6.388316151202749 L-5.607843137254902 7.717460317460317 L-3.88395061728395 8.704347826086956 L-1.986111111111111 9.316666666666666 L0 9.533333333333333 L1.986111111111111 9.316666666666666 L3.88395061728395 8.704347826086956 L5.607843137254902 7.717460317460317 L7.081904761904761 6.388316151202749 L8.26222222222222 4.766666666666667 L9.068292682926828 2.9507936507936505 L9.471827956989246 1.0035087719298244 L9.471827956989246 -1.0035087719298244 L9.068292682926828 -2.9507936507936505 L8.26222222222222 -4.766666666666667 L7.081904761904761 -6.388316151202749 L5.607843137254902 -7.717460317460317 L3.88395061728395 -8.704347826086956 z M-4.181113873473917 6.715017619311875 L-4.586857195708472 6.309725305216426 L-4.8044256381798 5.495662227155012 L-4.5852941176470585 4.6838235294117645 L-3.9910238623751386 4.0888919718830925 L-3.1769607843137253 3.8713235294117645 L-2.365122086570477 4.090455049944506 L-1.7701905290418052 4.684725305216426 L-1.5526220865704772 5.498788383277839 L-1.7717536071032185 6.310627081021087 L-2.3660238623751386 6.905558638549759 L-3.180086940436552 7.123127081021087 L-3.9919256381798 6.903995560488346 z M-4.180001803551609 -4.27808020717721 L-4.5852941176470585 -4.6838235294117645 L-4.8044256381798 -5.495662227155012 L-4.586857195708472 -6.309725305216426 L-3.9919256381798 -6.903995560488346 L-3.180086940436552 -7.123127081021087 L-2.3660238623751386 -6.905558638549759 L-1.7717536071032185 -6.310627081021087 L-1.5526220865704772 -5.498788383277839 L-1.7701905290418052 -4.684725305216426 L-2.365122086570477 -4.090455049944506 L-3.1769607843137253 -3.8713235294117645 L-3.9910238623751386 -4.0888919718830925 z M4.872766666666666 0.554125 L4.725 0 L4.941666666666666 -0.8125 L5.5375 -1.4083333333333332 L6.35 -1.625 L7.1625 -1.4083333333333332 L7.758333333333333 -0.8125 L7.975 0 L7.758333333333333 0.8125 L7.1625 1.4083333333333332 L6.35 1.625 L5.5375 1.4083333333333332 L4.941666666666666 0.8125 z"/>
<path fill="#3c3c3c" stroke="#3c3c3c" d="M0 -9.533333333333333 L1.986111111111111 -9.316666666666666 L3.88395061728395 -8.704347826086956 L5.607843137254902 -7.717460317460317 L7.081904761904761 -6.388316151202749 L8.26222222222222 -4.766666666666667 L9.068292682926828 -2.9507936507936505 L9.471827956989246 -1.0035087719298244 L9.471827956989246 1.0035087719298244 L9.068292682926828 2.9507936507936505 L8.26222222222222 4.766666666666667 L7.081904761904761 6.388316151202749 L5.607843137254902 7.717460317460317 L3.88395061728395 8.704347826086956 L1.986111111111111 9.316666666666666 L0 9.533333333333333 L-1.986111111111111 9.316666666666666 L-3.88395061728395 8.704347826086956 L-5.607843137254902 7.717460317460317 L-7.081904761904761 6.388316151202749 L-8.26222222222222 4.766666666666667 L-9.068292682926828 2.9507936507936505 L-9.471827956989246 1.0035087719298244 L-9.471827956989246 -1.0035087719298244 L-9.068292682926828 -2.9507936507936505 L-8.26222222222222 -4.766666666666667 L-7.081904761904761 -6.388316151202749 L-5.607843137254902 -7.717460317460317 L-3.88395061728395 -8.704347826086956 L-1.986111111111111 -9.316666666666666 z M-2.3660238623751386 6.905558638549759 L-1.7717536071032185 6.310627081021087 L-1.5526220865704772 5.498788383277839 L-1.7701905290418052 4.684725305216426 L-2.365122086570477 4.090455049944506 L-3.1769607843137253 3.8713235294117645 L-3.9910238623751386 4.0888919718830925 L-4.5852941176470585 4.6838235294117645 L-4.8044256381798 5.495662227155012 L-4.586857195708472 6.309725305216426 L-3.9919256381798 6.903995560488346 L-3.180086940436552 7.123127081021087 z M-3.9910238623751386 -4.0888919718830925 L-3.1769607843137253 -3.8713235294117645 L-2.365122086570477 -4.090455049944506 L-1.7701905290418052 -4.684725305216426 L-1.5526220865704772 -5.498788383277839 L-1.7717536071032185 -6.310627081021087 L-2.3660238623751386 -6.905558638549759 L-3.180086940436552 -7.123127081021087 L-3.9919256381798 -6.903995560488346 L-4.586857195708472 -6.309725305216426 L-4.8044256381798 -5.495662227155012 L-4.5852941176470585 -4.6838235294117645 z M7.1625 -1.4083333333333332 L6.35 -1.625 L5.5375 -1.4083333333333332 L4.941666666666666 -0.8125 L4.725 0 L4.941666666666666 0.8125 L5.5375 1.4083333333333332 L6.35 1.625 L7.1625 1.4083333333333332 L7.758333333333333 0.8125 L7.975 0 L7.758333333333333 -0.8125 z"/>
<path fill="#3c3c3c" stroke="#3c3c3c" d="M0 -4 L0 -4 L-1.2972972972972971 -3.7837837837837838 L-1.2972972972972971 -3.7837837837837838 z"/>
<path fill="#3c3c3c" stroke="#3c3c3c" d="M1.2972972972972971 -3.7837837837837838 L1.2972972972972971 -3.7837837837837838 L0 -4 L0 -4 z"/>
<path fill="#3c3c3c" stroke="#3c3c3c" d="M2.454545454545454 -3.157894736842105 L2.454545454545454 -3.157894736842105 L1.2972972972972971 -3.7837837837837838 L1.2972972972972971 -3.7837837837837838 z"/>
<path fill="#3c3c3c" stroke="#3c3c3c" d="M3.3513513513513513 -2.1904761904761902 L3.3513513513513513 -2.1904761904761902 L2.454545454545454 -3.157894736842105 L2.454545454545454 -3.157894736842105 z"/>
<path fill="#3c3c3c" stroke="#3c3c3c" d="M3.875 -0.9795918367346939 L3.875 -0.9795918367346939 L3.3513513513513513 -2.1904761904761902 L3.3513513513513513 -2.1904761904761902 z"/>
<path fill="#3c3c3c" stroke="#3c3c3c" d="M1.9047619047619047 3.5199999999999996 L1.9047619047619047 3.5199999999999996 L2.941176470588235 2.7096774193548385 L2.941176470588235 2.7096774193548385 z"/>
<path fill="#3c3c3c" stroke="#3c3c3c" d="M3.6666666666666665 1.6103896103896103 L3.6666666666666665 1.6103896103896103 L3.9823788546255505 0.3333333333333333 L3.9823788546255505 0.3333333333333333 z"/>
<path fill="#3c3c3c" stroke="#3c3c3c" d="M2.941176470588235 2.7096774193548385 L2.941176470588235 2.7096774193548385 L3.6666666666666665 1.6103896103896103 L3.6666666666666665 1.6103896103896103 z"/>
<path fill="#3c3c3c" stroke="#3c3c3c" d="M3.9823788546255505 0.3333333333333333 L3.9823788546255505 0.3333333333333333 L3.875 -0.9795918367346939 L3.875 -0.9795918367346939 z"/>
<path fill="#3c3c3c" stroke="#3c3c3c" d="M-1.9047619047619047 3.5199999999999996 L-1.9047619047619047 3.5199999999999996 L-0.6545454545454545 3.942028985507246 L-0.6545454545454545 3.942028985507246 z"/>
<path fill="#3c3c3c" stroke="#3c3c3c" d="M-0.6545454545454545 3.942028985507246 L-0.6545454545454545 3.942028985507246 L0.6545454545454545 3.942028985507246 L0.6545454545454545 3.942028985507246 z"/>
<path fill="#3c3c3c" stroke="#3c3c3c" d="M0.6545454545454545 3.942028985507246 L0.6545454545454545 3.942028985507246 L1.9047619047619047 3.5199999999999996 L1.9047619047619047 3.5199999999999996 z"/>
<path fill="#3c3c3c" stroke="#3c3c3c" d="M-2.941176470588235 2.7096774193548385 L-2.941176470588235 2.7096774193548385 L-1.9047619047619047 3.5199999999999996 L-1.9047619047619047 3.5199999999999996 z"/>
<path fill="#3c3c3c" stroke="#3c3c3c" d="M-3.6666666666666665 1.6103896103896103 L-3.6666666666666665 1.6103896103896103 L-2.941176470588235 2.7096774193548385 L-2.941176470588235 2.7096774193548385 z"/>
<path fill="#3c3c3c" stroke="#3c3c3c" d="M-3.9823788546255505 0.3333333333333333 L-3.9823788546255505 0.3333333333333333 L-3.6666666666666665 1.6103896103896103 L-3.6666666666666665 1.6103896103896103 z"/>
<path fill="#3c3c3c" stroke="#3c3c3c" d="M-3.875 -0.9795918367346939 L-3.875 -0.9795918367346939 L-3.9823788546255505 0.3333333333333333 L-3.9823788546255505 0.3333333333333333 z"/>
<path fill="#3c3c3c" stroke="#3c3c3c" d="M-1.2972972972972971 -3.7837837837837838 L-1.2972972972972971 -3.7837837837837838 L-2.454545454545454 -3.157894736842105 L-2.454545454545454 -3.157894736842105 z"/>
<path fill="#3c3c3c" stroke="#3c3c3c" d="M-3.3513513513513513 -2.1904761904761902 L-3.3513513513513513 -2.1904761904761902 L-3.875 -0.9795918367346939 L-3.875 -0.9795918367346939 z"/>
<path fill="#3c3c3c" stroke="#3c3c3c" d="M-2.454545454545454 -3.157894736842105 L-2.454545454545454 -3.157894736842105 L-3.3513513513513513 -2.1904761904761902 L-3.3513513513513513 -2.1904761904761902 z"/>
<path fill="#3c3c3c" stroke="#3c3c3c" d="M0 -4 L-1.2972972972972971 -3.7837837837837838 L-2.454545454545454 -3.157894736842105 L-3.3513513513513513 -2.1904761904761902 L-3.875 -0.9795918367346939 L-3.9823788546255505 0.3333333333333333 L-3.6666666666666665 1.6103896103896103 L-2.941176470588235 2.7096774193548385 L-1.9047619047619047 3.5199999999999996 L-0.6545454545454545 3.942028985507246 L0.6545454545454545 3.942028985507246 L1.9047619047619047 3.5199999999999996 L2.941176470588235 2.7096774193548385 L3.6666666666666665 1.6103896103896103 L3.9823788546255505 0.3333333333333333 L3.875 -0.9795918367346939 L3.3513513513513513 -2.1904761904761902 L2.454545454545454 -3.157894736842105 L1.2972972972972971 -3.7837837837837838 z"/>
<path fill="#3c3c3c" stroke="#3c3c3c" d="M0 -4 L1.2972972972972971 -3.7837837837837838 L2.454545454545454 -3.157894736842105 L3.3513513513513513 -2.1904761904761902 L3.875 -0.9795918367346939 L3.9823788546255505 0.3333333333333333 L3.6666666666666665 1.6103896103896103 L2.941176470588235 2.7096774193548385 L1.9047619047619047 3.5199999999999996 L0.6545454545454545 3.942028985507246 L-0.6545454545454545 3.942028985507246 L-1.9047619047619047 3.5199999999999996 L-2.941176470588235 2.7096774193548385 L-3.6666666666666665 1.6103896103896103 L-3.9823788546255505 0.3333333333333333 L-3.875 -0.9795918367346939 L-3.3513513513513513 -2.1904761904761902 L-2.454545454545454 -3.157894736842105 L-1.2972972972972971 -3.7837837837837838 z"/>
</svg>