<?xml version="1.0" encoding="UTF-8"?>
<!-- Generated by jsxcad -->
<!DOCTYPE svg PUBLIC "-//W3C//DTD SVG 1.1 Tiny//EN" "http://www.w3.org/Graphics/SVG/1.1/DTD/svg11-tiny.dtd">
<svg baseProfile="tiny" height="19.036500176321173mm" width="19.043248891901786mm" viewBox="0 0 19.043248891901786 19.036500176321173" version="1.1" stroke="black" stroke-width=".1" fill="none" xmlns="http://www.w3.org/2000/svg">
<path fill="#000000" stroke="#000000" d="M9.52162 19.04325 L8.50918 18.98929 L7.5082 18.82802 L6.53004 18.56126 L5.58578 18.19205 L4.68611 17.72455 L3.84123 17.16408 L3.0607 16.51697 L2.35339 15.79057 L1.72729 14.9931 L1.18951 14.1336 L0.74613 13.2218 L0.40218 12.26804 L0.16156 11.28313 L0.02699 10.27821 L0 9.26469 L0.08089 8.25404 L0.26875 7.25771 L0.56145 6.287 L0.95568 5.3529 L1.44695 4.46599 L2.02972 3.63633 L2.69737 2.87331 L3.44235 2.18558 L4.2562 1.58094 L5.12972 1.06622 L6.05299 0.64727 L7.01557 0.32884 L8.00654 0.11452 L9.01468 0.00675 L10.02857 0.00675 L11.0367 0.11452 L12.02768 0.32884 L12.99025 0.64727 L13.91353 1.06622 L14.78705 1.58094 L15.6009 2.18558 L16.34587 2.87331 L17.01353 3.63633 L17.59629 4.46599 L18.08757 5.3529 L18.48179 6.287 L18.77449 7.25771 L18.96236 8.25404 L19.04325 9.26469 L19.01626 10.27821 L18.88169 11.28313 L18.64107 12.26804 L18.29712 13.2218 L17.85374 14.1336 L17.31596 14.9931 L16.68986 15.79057 L15.98254 16.51697 L15.20202 17.16408 L14.35714 17.72455 L13.45747 18.19205 L12.51321 18.56126 L11.53504 18.82802 L10.53407 18.98929 z"/>
<path fill="#000000" stroke="#000000" d="M9.521620017279048 19.04325032419867 L9.521620017279048 19.04325032419867 L10.534069949758189 18.989289057336503 L10.534069949758189 18.989289057336503 z"/>
<path fill="#000000" stroke="#000000" d="M10.534069849796857 18.989289067725704 L10.534069849796857 18.989289067725704 L11.535039687545046 18.828018060668246 L11.535039687545046 18.828018060668246 z"/>
<path fill="#000000" stroke="#000000" d="M14.357141614887281 17.72455243434857 L14.357141614887281 17.72455243434857 L15.202020361692746 17.16408054523076 L15.202020361692746 17.16408054523076 z"/>
<path fill="#000000" stroke="#000000" d="M13.457468595553848 18.192047297205647 L13.457468595553848 18.192047297205647 L14.357141364096178 17.724552625142614 L14.357141364096178 17.724552625142614 z"/>
<path fill="#000000" stroke="#000000" d="M12.513210136955138 18.561260350261076 L12.513210136955138 18.561260350261076 L13.457468813336671 18.19204696512318 L13.457468813336671 18.19204696512318 z"/>
<path fill="#000000" stroke="#000000" d="M16.689861109467188 15.790570871046906 L16.689861109467188 15.790570871046906 L17.31595908456344 14.993099281287279 L17.31595908456344 14.993099281287279 z"/>
<path fill="#000000" stroke="#000000" d="M17.853740739623255 14.133600462776581 L17.853740739623255 14.133600462776581 L17.31595891708036 14.993099322425513 L17.31595891708036 14.993099322425513 z"/>
<path fill="#000000" stroke="#000000" d="M15.982544342465951 16.51697422836573 L15.982544342465951 16.51697422836573 L16.689861014814305 15.790570988149609 L16.689861014814305 15.790570988149609 z"/>
<path fill="#000000" stroke="#000000" d="M15.982543813054201 16.516974599209487 L15.982543813054201 16.516974599209487 L15.202020673659431 17.164080812550957 L15.202020673659431 17.164080812550957 z"/>
<path fill="#000000" stroke="#000000" d="M18.29712097860364 13.221800475864299 L18.29712097860364 13.221800475864299 L17.853741156200638 14.133600562224155 L17.853741156200638 14.133600562224155 z"/>
<path fill="#000000" stroke="#000000" d="M18.297121030774914 13.221800371721924 L18.297121030774914 13.221800371721924 L18.641069717771096 12.268039898221552 L18.641069717771096 12.268039898221552 z"/>
<path fill="#000000" stroke="#000000" d="M12.513210248797932 18.561260912314374 L12.513210248797932 18.561260912314374 L11.53503960645025 18.82801855689679 L11.53503960645025 18.82801855689679 z"/>
<path fill="#000000" stroke="#000000" d="M19.016258886768963 10.278209970354702 L19.016258886768963 10.278209970354702 L19.043248882613828 9.264689970244051 L19.043248882613828 9.264689970244051 z"/>
<path fill="#000000" stroke="#000000" d="M18.88169008637992 11.283130011567156 L18.88169008637992 11.283130011567156 L19.016259194748496 10.278209892168565 L19.016259194748496 10.278209892168565 z"/>
<path fill="#000000" stroke="#000000" d="M18.88168958136702 11.283129897725214 L18.88168958136702 11.283129897725214 L18.64106960171585 12.268039902696566 L18.64106960171585 12.268039902696566 z"/>
<path fill="#000000" stroke="#000000" d="M18.481794142966248 6.2869987507693095 L18.481794142966248 6.2869987507693095 L18.774492926631904 7.257709117531213 L18.774492926631904 7.257709117531213 z"/>
<path fill="#000000" stroke="#000000" d="M18.96235542920948 8.254040861839446 L18.96235542920948 8.254040861839446 L18.774493440067644 7.2577093513625295 L18.774493440067644 7.2577093513625295 z"/>
<path fill="#000000" stroke="#000000" d="M18.96235523654209 8.254040381273251 L18.96235523654209 8.254040381273251 L19.04324892906122 9.264690085719305 L19.04324892906122 9.264690085719305 z"/>
<path fill="#000000" stroke="#000000" d="M18.087572876338886 5.352898786089702 L18.087572876338886 5.352898786089702 L18.481793847764298 6.286998376115998 L18.481793847764298 6.286998376115998 z"/>
<path fill="#000000" stroke="#000000" d="M18.087572808925433 5.352898444073271 L18.087572808925433 5.352898444073271 L17.596293330076154 4.465988155396212 L17.596293330076154 4.465988155396212 z"/>
<path fill="#000000" stroke="#000000" d="M17.013529549965405 3.6363303161106435 L17.013529549965405 3.6363303161106435 L17.59629282077908 4.465988018644992 L17.59629282077908 4.465988018644992 z"/>
<path fill="#000000" stroke="#000000" d="M17.0135298020859 3.636330173177982 L17.0135298020859 3.636330173177982 L16.345872848302683 2.8733075076899026 L16.345872848302683 2.8733075076899026 z"/>
<path fill="#000000" stroke="#000000" d="M15.600899440038596 2.18558060657229 L15.600899440038596 2.18558060657229 L16.345872328363164 2.873307477825129 L16.345872328363164 2.873307477825129 z"/>
<path fill="#000000" stroke="#000000" d="M14.787050635392696 1.5809391447601804 L14.787050635392696 1.5809391447601804 L15.600899436701472 2.1855807582009246 L15.600899436701472 2.1855807582009246 z"/>
<path fill="#000000" stroke="#000000" d="M14.787050912050676 1.5809384521687657 L14.787050912050676 1.5809384521687657 L13.913529446489042 1.0662209393573971 L13.913529446489042 1.0662209393573971 z"/>
<path fill="#000000" stroke="#000000" d="M12.990249542135237 0.6472710090398766 L12.990249542135237 0.6472710090398766 L13.913529497182436 1.0662211081066169 L13.913529497182436 1.0662211081066169 z"/>
<path fill="#000000" stroke="#000000" d="M12.027680793617263 0.3288376010372542 L12.027680793617263 0.3288376010372542 L12.990249493268573 0.6472715317582786 L12.990249493268573 0.6472715317582786 z"/>
<path fill="#000000" stroke="#000000" d="M12.027680635786087 0.32883706021494596 L12.027680635786087 0.32883706021494596 L11.036700394357267 0.11451817654770625 L11.036700394357267 0.11451817654770625 z"/>
<path fill="#000000" stroke="#000000" d="M10.028569960298105 0.006750371395994303 L10.028569960298105 0.006750371395994303 L11.03670015266093 0.1145185719155266 L11.03670015266093 0.1145185719155266 z"/>
<path fill="#000000" stroke="#000000" d="M9.01468 0.00674991183942808 L9.01468 0.00674991183942808 L10.02857 0.00674991183942808 L10.02857 0.00674991183942808 z"/>
<path fill="#000000" stroke="#000000" d="M9.014680027182262 0.006750254279640344 L9.014680027182262 0.006750254279640344 L8.006539947802487 0.11451951171229097 L8.006539947802487 0.11451951171229097 z"/>
<path fill="#000000" stroke="#000000" d="M6.052991976106401 0.6472743549325634 L6.052991976106401 0.6472743549325634 L5.129720313616097 1.066220691145454 L5.129720313616097 1.066220691145454 z"/>
<path fill="#000000" stroke="#000000" d="M7.015569097075296 0.3288372706204516 L7.015569097075296 0.3288372706204516 L6.052991383865796 0.6472741831782691 L6.052991383865796 0.6472741831782691 z"/>
<path fill="#000000" stroke="#000000" d="M7.015569314701188 0.3288368312751033 L7.015569314701188 0.3288368312751033 L8.006540002956143 0.1145200136687927 L8.006540002956143 0.1145200136687927 z"/>
<path fill="#000000" stroke="#000000" d="M4.256198802365193 1.5809379675070594 L4.256198802365193 1.5809379675070594 L5.129720267926827 1.066220454695691 L5.129720267926827 1.066220454695691 z"/>
<path fill="#000000" stroke="#000000" d="M4.256198970507711 1.5809386143013544 L4.256198970507711 1.5809386143013544 L3.4423501691989347 2.1855802277420993 L3.4423501691989347 2.1855802277420993 z"/>
<path fill="#000000" stroke="#000000" d="M2.697371762862619 2.873311909602361 L2.697371762862619 2.873311909602361 L3.4423500501177156 2.1855800542894874 L3.4423500501177156 2.1855800542894874 z"/>
<path fill="#000000" stroke="#000000" d="M2.6973721877393837 2.873311914306716 L2.6973721877393837 2.873311914306716 L2.029719570328535 3.636329624030642 L2.029719570328535 3.636329624030642 z"/>
<path fill="#000000" stroke="#000000" d="M1.446953133411153 4.465992200952183 L1.446953133411153 4.465992200952183 L2.0297197080304947 3.636329794916502 L2.0297197080304947 3.636329794916502 z"/>
<path fill="#000000" stroke="#000000" d="M0.9556763431462278 5.352897974386769 L0.9556763431462278 5.352897974386769 L1.4469534741000494 4.465991924381849 L1.4469534741000494 4.465991924381849 z"/>
<path fill="#000000" stroke="#000000" d="M0.9556761830898824 5.3528983891374855 L0.9556761830898824 5.3528983891374855 L0.561453699822078 6.287001561447482 L0.561453699822078 6.287001561447482 z"/>
<path fill="#000000" stroke="#000000" d="M0.26875522419175085 7.2577115752531585 L0.26875522419175085 7.2577115752531585 L0.5614540078574073 6.287001208491254 L0.5614540078574073 6.287001208491254 z"/>
<path fill="#000000" stroke="#000000" d="M0.268755146558158 7.257710970402564 L0.268755146558158 7.257710970402564 L0.08089350073543365 8.254040660076605 L0.08089350073543365 8.254040660076605 z"/>
<path fill="#000000" stroke="#000000" d="M1.7272902298968067 14.993099819507142 L1.7272902298968067 14.993099819507142 L2.353388204993057 15.79057140926677 L2.353388204993057 15.79057140926677 z"/>
<path fill="#000000" stroke="#000000" d="M-3.010548157245191e-8 9.264689997590319 L-3.010548157245191e-8 9.264689997590319 L0.08089366241365252 8.254040293144262 L0.08089366241365252 8.254040293144262 z"/>
<path fill="#000000" stroke="#000000" d="M1.0073214466108654e-8 9.26468999973175 L1.0073214466108654e-8 9.26468999973175 L0.02699000591807884 10.278209999842401 L0.02699000591807884 10.278209999842401 z"/>
<path fill="#000000" stroke="#000000" d="M0.40217930165396254 12.268040251840171 L0.40217930165396254 12.268040251840171 L0.7461279886501453 13.221800725340543 L0.7461279886501453 13.221800725340543 z"/>
<path fill="#000000" stroke="#000000" d="M0.16155937294724637 11.283130153193103 L0.16155937294724637 11.283130153193103 L0.40217935259841725 12.268040158164455 L0.40217935259841725 12.268040158164455 z"/>
<path fill="#000000" stroke="#000000" d="M0.16155882504219532 11.283130157338897 L0.16155882504219532 11.283130157338897 L0.026989716673621707 10.278210037940307 L0.026989716673621707 10.278210037940307 z"/>
<path fill="#000000" stroke="#000000" d="M1.1895084640379043 14.133600961039663 L1.1895084640379043 14.133600961039663 L1.7272902865808037 14.993099820688595 L1.7272902865808037 14.993099820688595 z"/>
<path fill="#000000" stroke="#000000" d="M1.189507947611291 14.133600998012342 L1.189507947611291 14.133600998012342 L0.7461281252082893 13.221800911652485 L0.7461281252082893 13.221800911652485 z"/>
<path fill="#000000" stroke="#000000" d="M3.841229299685833 17.164081055682836 L3.841229299685833 17.164081055682836 L4.686108046491297 17.72455294480065 L4.686108046491297 17.72455294480065 z"/>
<path fill="#000000" stroke="#000000" d="M3.060700221838472 16.51696978399043 L3.060700221838472 16.51696978399043 L2.3533884163875127 15.790571542002365 L2.3533884163875127 15.790571542002365 z"/>
<path fill="#000000" stroke="#000000" d="M3.0606998091121236 16.516970230244127 L3.0606998091121236 16.516970230244127 L3.841228874950512 17.164081357006218 L3.841228874950512 17.164081357006218 z"/>
<path fill="#000000" stroke="#000000" d="M5.585781168857494 18.192047750585573 L5.585781168857494 18.192047750585573 L4.686108400315165 17.724553078522536 L4.686108400315165 17.724553078522536 z"/>
<path fill="#000000" stroke="#000000" d="M5.585781039715183 18.192047340941244 L5.585781039715183 18.192047340941244 L6.530039716096716 18.561260726079144 L6.530039716096716 18.561260726079144 z"/>
<path fill="#000000" stroke="#000000" d="M7.508201009073505 18.828016299839575 L7.508201009073505 18.828016299839575 L6.530039674496229 18.56126119358616 L6.530039674496229 18.56126119358616 z"/>
<path fill="#000000" stroke="#000000" d="M8.509180122166931 18.989289241739627 L8.509180122166931 18.989289241739627 L7.508200537430701 18.82801666429861 L7.508200537430701 18.82801666429861 z"/>
<path fill="#000000" stroke="#000000" d="M8.50918004710301 18.989289116228314 L8.50918004710301 18.989289116228314 L9.521620007908151 19.043249851623052 L9.521620007908151 19.043249851623052 z"/>
<path fill="#000000" stroke="#000000" d="M8.50918 18.98929 L9.52162 19.04325 L10.53407 18.98929 L11.53504 18.82802 L12.51321 18.56126 L13.45747 18.19205 L14.35714 17.72455 L15.20202 17.16408 L15.98254 16.51697 L16.68986 15.79057 L17.31596 14.9931 L17.85374 14.1336 L18.29712 13.2218 L18.64107 12.26804 L18.88169 11.28313 L19.01626 10.27821 L19.04325 9.26469 L18.96236 8.25404 L18.77449 7.25771 L18.48179 6.287 L18.08757 5.3529 L17.59629 4.46599 L17.01353 3.63633 L16.34587 2.87331 L15.6009 2.18558 L14.78705 1.58094 L13.91353 1.06622 L12.99025 0.64727 L12.02768 0.32884 L11.0367 0.11452 L10.02857 0.00675 L9.01468 0.00675 L8.00654 0.11452 L7.01557 0.32884 L6.05299 0.64727 L5.12972 1.06622 L4.2562 1.58094 L3.44235 2.18558 L2.69737 2.87331 L2.02972 3.63633 L1.44695 4.46599 L0.95568 5.3529 L0.56145 6.287 L0.26875 7.25771 L0.08089 8.25404 L0 9.26469 L0.02699 10.27821 L0.16156 11.28313 L0.40218 12.26804 L0.74613 13.2218 L1.18951 14.1336 L1.72729 14.9931 L2.35339 15.79057 L3.0607 16.51697 L3.84123 17.16408 L4.68611 17.72455 L5.58578 18.19205 L6.53004 18.56126 L7.5082 18.82802 z"/>
<path fill="#000000" stroke="#000000" d="M7.59461 13.02348 L6.78344 12.43412 L6.14431 11.66156 L5.7174 10.75432 L5.52952 9.76941 L5.59248 8.76872 L5.90232 7.81513 L6.43957 6.96855 L7.17048 6.28218 L8.04913 5.79914 L9.02029 5.54979 L10.02296 5.54979 L10.99412 5.79914 L11.87277 6.28218 L12.60368 6.96855 L13.14093 7.81513 L13.45077 8.76872 L13.51373 9.76941 L13.32585 10.75432 L12.89894 11.66156 L12.25981 12.43412 L11.44864 13.02348 L10.51638 13.39258 L9.52162 13.51825 L8.52686 13.39258 z"/>
<path fill="#000000" stroke="#000000" d="M10.516380402543346 13.392583186458697 L10.516380402543346 13.392583186458697 L9.521620080801185 13.518250639607235 L9.521620080801185 13.518250639607235 z"/>
<path fill="#000000" stroke="#000000" d="M8.526859737134375 13.392582080795671 L8.526859737134375 13.392582080795671 L9.521620058876538 13.518249533944209 L9.521620058876538 13.518249533944209 z"/>
<path fill="#000000" stroke="#000000" d="M12.259813177850907 12.434124373936534 L12.259813177850907 12.434124373936534 L11.448638185965487 13.023477503195695 L11.448638185965487 13.023477503195695 z"/>
<path fill="#000000" stroke="#000000" d="M11.448638791353858 13.023476947308314 L11.448638791353858 13.023476947308314 L10.516381476654775 13.392583729604231 L10.516381476654775 13.392583729604231 z"/>
<path fill="#000000" stroke="#000000" d="M13.325849673252348 10.754319846244224 L13.325849673252348 10.754319846244224 L12.8989357937962 11.661558020710732 L12.8989357937962 11.661558020710732 z"/>
<path fill="#000000" stroke="#000000" d="M12.898936371312443 11.661556998088583 L12.898936371312443 11.661556998088583 L12.259813961896551 12.43412327756587 L12.259813961896551 12.43412327756587 z"/>
<path fill="#000000" stroke="#000000" d="M13.140931543482257 7.8151294984922135 L13.140931543482257 7.8151294984922135 L13.450771700080479 8.768719447610366 L13.450771700080479 8.768719447610366 z"/>
<path fill="#000000" stroke="#000000" d="M13.513731218549998 9.769409923335331 L13.513731218549998 9.769409923335331 L13.450773132599645 8.768719802913536 L13.450773132599645 8.768719802913536 z"/>
<path fill="#000000" stroke="#000000" d="M13.513731710653818 9.769410326324667 L13.513731710653818 9.769410326324667 L13.325850137145826 10.754320026161965 L13.325850137145826 10.754320026161965 z"/>
<path fill="#000000" stroke="#000000" d="M12.603676290554104 6.968552354085948 L12.603676290554104 6.968552354085948 L13.140930571395778 7.8151296373812125 L13.140930571395778 7.8151296373812125 z"/>
<path fill="#000000" stroke="#000000" d="M10.994118866878104 5.799142061141077 L10.994118866878104 5.799142061141077 L11.872768054149496 6.282183539488922 L11.872768054149496 6.282183539488922 z"/>
<path fill="#000000" stroke="#000000" d="M11.87276681700011 6.2821833895506085 L11.87276681700011 6.2821833895506085 L12.603676729110353 6.968553483143696 L12.603676729110353 6.968553483143696 z"/>
<path fill="#000000" stroke="#000000" d="M9.02029 5.549791282902675 L9.02029 5.549791282902675 L10.02296 5.5497912829026745 L10.02296 5.5497912829026745 z"/>
<path fill="#000000" stroke="#000000" d="M10.022959528953082 5.549791834606613 L10.022959528953082 5.549791834606613 L10.994119165967414 5.799143248342456 L10.994119165967414 5.799143248342456 z"/>
<path fill="#000000" stroke="#000000" d="M7.170481688675752 6.282183071689789 L7.170481688675752 6.282183071689789 L8.049130875947146 5.799141593341944 L8.049130875947146 5.799141593341944 z"/>
<path fill="#000000" stroke="#000000" d="M8.049130765500411 5.799142981427263 L8.049130765500411 5.799142981427263 L9.020290402514743 5.549791567691421 L9.020290402514743 5.549791567691421 z"/>
<path fill="#000000" stroke="#000000" d="M5.902318638652479 7.815129136062592 L5.902318638652479 7.815129136062592 L6.439572919494152 6.968551852767328 L6.439572919494152 6.968551852767328 z"/>
<path fill="#000000" stroke="#000000" d="M6.439572751629571 6.968552930187878 L6.439572751629571 6.968552930187878 L7.170482663739812 6.282182836594791 L7.170482663739812 6.282182836594791 z"/>
<path fill="#000000" stroke="#000000" d="M5.529517220155243 9.769410530283748 L5.529517220155243 9.769410530283748 L5.717398793663234 10.754320230121044 L5.717398793663234 10.754320230121044 z"/>
<path fill="#000000" stroke="#000000" d="M5.592475763670982 8.76871973347277 L5.592475763670982 8.76871973347277 L5.529517677720631 9.769409853894565 L5.529517677720631 9.769409853894565 z"/>
<path fill="#000000" stroke="#000000" d="M5.59247729763527 8.768719121948472 L5.59247729763527 8.768719121948472 L5.902317454233492 7.81512917283032 L5.902317454233492 7.81512917283032 z"/>
<path fill="#000000" stroke="#000000" d="M6.783435380235891 12.434123821801244 L6.783435380235891 12.434123821801244 L6.144312970819999 11.661557542323957 L6.144312970819999 11.661557542323957 z"/>
<path fill="#000000" stroke="#000000" d="M6.144313298990499 11.661558447612906 L6.144313298990499 11.661558447612906 L5.7173994195343525 10.7543202731464 L5.7173994195343525 10.7543202731464 z"/>
<path fill="#000000" stroke="#000000" d="M7.59461105848145 13.023477326581027 L7.59461105848145 13.023477326581027 L8.526859728337394 13.392580686141413 L8.526859728337394 13.392580686141413 z"/>
<path fill="#000000" stroke="#000000" d="M7.594611431195994 13.023478030127707 L7.594611431195994 13.023478030127707 L6.783436439310575 12.434124900868548 L6.783436439310575 12.434124900868548 z"/>
<path fill="#000000" stroke="#000000" d="M6.78344 12.43412 L7.59461 13.02348 L8.52686 13.39258 L9.52162 13.51825 L10.51638 13.39258 L11.44864 13.02348 L12.25981 12.43412 L12.89894 11.66156 L13.32585 10.75432 L13.51373 9.76941 L13.45077 8.76872 L13.14093 7.81513 L12.60368 6.96855 L11.87277 6.28218 L10.99412 5.79914 L10.02296 5.54979 L9.02029 5.54979 L8.04913 5.79914 L7.17048 6.28218 L6.43957 6.96855 L5.90232 7.81513 L5.59248 8.76872 L5.52952 9.76941 L5.7174 10.75432 L6.14431 11.66156 z"/>
<path fill="#000000" stroke="#000000" d="M14.91647 10.8329 L14.32616 10.0204 L14.32616 9.0161 L14.91647 8.2036 L15.87162 7.89325 L16.82678 8.2036 L17.41709 9.0161 L17.41709 10.0204 L16.82678 10.8329 L15.87162 11.14325 z"/>
<path fill="#000000" stroke="#000000" d="M16.826778328065632 10.83289878526858 L16.826778328065632 10.83289878526858 L17.4170921268358 10.020401545236659 L17.4170921268358 10.020401545236659 z"/>
<path fill="#000000" stroke="#000000" d="M15.871620450460277 11.143251386374182 L15.871620450460277 11.143251386374182 L16.82678036315835 10.832901117686475 L16.82678036315835 10.832901117686475 z"/>
<path fill="#000000" stroke="#000000" d="M17.417091284930514 9.0161 L17.417091284930514 9.0161 L17.417091284930514 10.0204 L17.417091284930514 10.0204 z"/>
<path fill="#000000" stroke="#000000" d="M14.916469582847178 8.203598716135629 L14.916469582847178 8.203598716135629 L15.871620450460277 7.893251386374183 L15.871620450460277 7.893251386374183 z"/>
<path fill="#000000" stroke="#000000" d="M16.826780311338855 8.203599041797522 L16.826780311338855 8.203599041797522 L15.871620398640784 7.893248773109815 L15.871620398640784 7.893248773109815 z"/>
<path fill="#000000" stroke="#000000" d="M16.826778244219934 8.203601275648886 L16.826778244219934 8.203601275648886 L17.417092042990102 9.016098515680806 L17.417092042990102 9.016098515680806 z"/>
<path fill="#000000" stroke="#000000" d="M14.916469531027685 10.83290144334837 L14.916469531027685 10.83290144334837 L15.871620398640784 11.143248773109814 L15.871620398640784 11.143248773109814 z"/>
<path fill="#000000" stroke="#000000" d="M14.326157231750198 9.016097988748792 L14.326157231750198 9.016097988748792 L14.916471030520368 8.203600748716873 L14.916471030520368 8.203600748716873 z"/>
<path fill="#000000" stroke="#000000" d="M14.326157606971268 10.0204 L14.326157606971268 10.0204 L14.326157606971268 9.0161 L14.326157606971268 9.0161 z"/>
<path fill="#000000" stroke="#000000" d="M14.326157147904498 10.020402072168675 L14.326157147904498 10.020402072168675 L14.916470946674668 10.832899312200594 L14.916470946674668 10.832899312200594 z"/>
<path fill="#000000" stroke="#000000" d="M14.32616 10.0204 L14.91647 10.8329 L15.87162 11.14325 L16.82678 10.8329 L17.41709 10.0204 L17.41709 9.0161 L16.82678 8.2036 L15.87162 7.89325 L14.91647 8.2036 L14.32616 9.0161 z"/>
<path fill="#000000" stroke="#000000" d="M7.55141 5.10759 L6.68198 5.6103 L5.68311 5.50596 L4.93633 4.83443 L4.72689 3.8522 L5.13479 2.93446 L6.00423 2.43175 L7.0031 2.53609 L7.74987 3.20762 L7.95931 4.18985 z"/>
<path fill="#000000" stroke="#000000" d="M7.003099945722859 2.5360905196158074 L7.003099945722859 2.5360905196158074 L6.0042297655427825 2.4317522445485316 L6.0042297655427825 2.4317522445485316 z"/>
<path fill="#000000" stroke="#000000" d="M7.7498688799171145 3.2076212455825432 L7.7498688799171145 3.2076212455825432 L7.003098181597336 2.5360920221455436 L7.003098181597336 2.5360920221455436 z"/>
<path fill="#000000" stroke="#000000" d="M5.134791656647108 2.9344628651546447 L5.134791656647108 2.9344628651546447 L6.004229634427377 2.431749367745797 L6.004229634427377 2.431749367745797 z"/>
<path fill="#000000" stroke="#000000" d="M4.726893425211842 3.852199269654011 L4.726893425211842 3.852199269654011 L4.936331015882194 4.8344297833869785 L4.936331015882194 4.8344297833869785 z"/>
<path fill="#000000" stroke="#000000" d="M5.683108085087623 5.505962129468685 L5.683108085087623 5.505962129468685 L4.936331857752 4.834427934096223 L4.936331857752 4.834427934096223 z"/>
<path fill="#000000" stroke="#000000" d="M4.726893997136763 3.8522017765712078 L4.726893997136763 3.8522017765712078 L5.134793657625357 2.934461625671646 L5.134793657625357 2.934461625671646 z"/>
<path fill="#000000" stroke="#000000" d="M7.959307779720862 4.189850473422386 L7.959307779720862 4.189850473422386 L7.74987018905051 3.207619959689418 L7.74987018905051 3.207619959689418 z"/>
<path fill="#000000" stroke="#000000" d="M6.68198018397746 5.610298238713461 L6.68198018397746 5.610298238713461 L5.683110003797385 5.505959963646185 L5.683110003797385 5.505959963646185 z"/>
<path fill="#000000" stroke="#000000" d="M7.551407155876751 5.1075887358982754 L7.551407155876751 5.1075887358982754 L7.959306816365345 4.189848584998712 L7.959306816365345 4.189848584998712 z"/>
<path fill="#000000" stroke="#000000" d="M7.551408447673996 5.107587315267666 L7.551408447673996 5.107587315267666 L6.681977964341259 5.610296479348518 L6.681977964341259 5.610296479348518 z"/>
<path fill="#000000" stroke="#000000" d="M6.68198 5.6103 L7.55141 5.10759 L7.95931 4.18985 L7.74987 3.20762 L7.0031 2.53609 L6.00423 2.43175 L5.13479 2.93446 L4.72689 3.8522 L4.93633 4.83443 L5.68311 5.50596 z"/>
<path fill="#000000" stroke="#000000" d="M6.68198 13.4262 L7.55141 13.92891 L7.95931 14.84665 L7.74987 15.82888 L7.0031 16.50041 L6.00423 16.60475 L5.13479 16.10204 L4.72689 15.1843 L4.93633 14.20207 L5.68311 13.53054 z"/>
<path fill="#000000" stroke="#000000" d="M4.726893931696349 15.1842982525145 L4.726893931696349 15.1842982525145 L5.134793592184942 16.10203840341406 L5.134793592184942 16.10203840341406 z"/>
<path fill="#000000" stroke="#000000" d="M4.936331051843542 14.202070224280934 L4.936331051843542 14.202070224280934 L4.726893461173189 15.184300738013901 L4.726893461173189 15.184300738013901 z"/>
<path fill="#000000" stroke="#000000" d="M6.004229558021629 16.604750764397178 L6.004229558021629 16.604750764397178 L5.13479158024136 16.10203726698833 L5.13479158024136 16.10203726698833 z"/>
<path fill="#000000" stroke="#000000" d="M7.003098269263086 16.50040807534271 L7.003098269263086 16.50040807534271 L7.749868967582864 15.828878851905712 L7.749868967582864 15.828878851905712 z"/>
<path fill="#000000" stroke="#000000" d="M7.95930781568221 14.846649534245527 L7.95930781568221 14.846649534245527 L7.749870225011857 15.828880047978494 L7.749870225011857 15.828880047978494 z"/>
<path fill="#000000" stroke="#000000" d="M7.003099963941924 16.50040965480227 L7.003099963941924 16.50040965480227 L6.004229783761849 16.604747929869543 L6.004229783761849 16.604747929869543 z"/>
<path fill="#000000" stroke="#000000" d="M5.683108172753372 13.53053796801957 L5.683108172753372 13.53053796801957 L4.936331945417749 14.202072163392032 L4.936331945417749 14.202072163392032 z"/>
<path fill="#000000" stroke="#000000" d="M7.551407090436336 13.928911293187433 L7.551407090436336 13.928911293187433 L7.95930675092493 14.846651444086996 L7.95930675092493 14.846651444086996 z"/>
<path fill="#000000" stroke="#000000" d="M6.681980202196526 13.426201935704615 L6.681980202196526 13.426201935704615 L5.68311002201645 13.53054021077189 L5.68311002201645 13.53054021077189 z"/>
<path fill="#000000" stroke="#000000" d="M6.681977887935511 13.426203652794458 L6.681977887935511 13.426203652794458 L7.5514083712682485 13.928912816875311 L7.5514083712682485 13.928912816875311 z"/>
<path fill="#000000" stroke="#000000" d="M7.55141 13.92891 L6.68198 13.4262 L5.68311 13.53054 L4.93633 14.20207 L4.72689 15.1843 L5.13479 16.10204 L6.00423 16.60475 L7.0031 16.50041 L7.74987 15.82888 L7.95931 14.84665 z"/>
</svg>