<?xml version="1.0" encoding="UTF-8"?>
<!-- Generated by jsxcad -->
<!DOCTYPE svg PUBLIC "-//W3C//DTD SVG 1.1 Tiny//EN" "http://www.w3.org/Graphics/SVG/1.1/DTD/svg11-tiny.dtd">
<svg baseProfile="tiny" height="16.586377814919317mm" width="19.066666666666684mm" viewBox="-9.533333333333342 -10.035733420664815 19.066666666666684 16.586377814919317" version="1.1" stroke="black" stroke-width=".1" fill="none" xmlns="http://www.w3.org/2000/svg">
<path fill="#3c3c3c" stroke="#3c3c3c" d="M0.8124999999999983 -2.4104450084602367 L0.8124999999999983 -0.16346023688663358 L1.4083333333333314 -0.5850803722504223 L1.4083333333333325 -2.832065143824027 z"/>
<path fill="#3c3c3c" stroke="#3c3c3c" d="M1.6249999999999998 -3.407001692047377 L1.4083333333333328 -2.8320651438240265 L1.4083333333333328 -0.585080372250423 L1.6249999999999996 -1.1600169204737731 z"/>
<path fill="#3c3c3c" stroke="#3c3c3c" d="M-0.8124999999999984 -2.410445008460237 L-1.4083333333333319 -2.8320651438240265 L-1.408333333333331 -0.5850803722504234 L-0.8124999999999994 -0.1634602368866325 z"/>
<path fill="#3c3c3c" stroke="#3c3c3c" d="M0.8124999999999999 -2.4104450084602402 L0 -2.25712859560068 L0 -0.010143824027073223 L0.8124999999999999 -0.16346023688663325 z"/>
<path fill="#3c3c3c" stroke="#3c3c3c" d="M-0.8124999999999999 -2.410445008460237 L-0.8124999999999999 -0.1634602368866345 L0 -0.010143824027074469 L0 -2.257128595600677 z"/>
<path fill="#3c3c3c" stroke="#3c3c3c" d="M1.408333333333335 -1.734953468697122 L0.8125000000000017 -2.156573604060912 L0.8125000000000019 -4.403558375634517 L1.4083333333333352 -3.9819382402707277 z"/>
<path fill="#3c3c3c" stroke="#3c3c3c" d="M0.8124999999999999 -2.1565736040609145 L0 -2.3098900169204746 L0 -4.556874788494081 L0.8124999999999999 -4.403558375634521 z"/>
<path fill="#3c3c3c" stroke="#3c3c3c" d="M-0.8124999999999999 -4.40355837563452 L0 -4.55687478849408 L0 -2.3098900169204737 L-0.8124999999999999 -2.1565736040609136 z"/>
<path fill="#3c3c3c" stroke="#3c3c3c" d="M-1.4083333333333339 -3.981938240270727 L-0.8125000000000019 -4.403558375634517 L-0.812500000000002 -2.1565736040609145 L-1.4083333333333348 -1.734953468697123 z"/>
<path fill="#3c3c3c" stroke="#3c3c3c" d="M-1.6250000000000004 -3.4070016920473765 L-1.4083333333333332 -3.9819382402707273 L-1.4083333333333337 -1.734953468697123 L-1.6250000000000002 -1.160016920473773 z"/>
<path fill="#3c3c3c" stroke="#3c3c3c" d="M7.123127081021088 5.583608051591481 L6.905558638549759 5.007565447115537 L6.90555863854976 2.7605806755419335 L7.123127081021087 3.3366232800178772 z"/>
<path fill="#3c3c3c" stroke="#3c3c3c" d="M6.903995560488346 6.158076652938734 L7.123127081021087 5.583608051591481 L7.123127081021087 3.3366232800178772 L6.903995560488346 3.9110918813651305 z"/>
<path fill="#3c3c3c" stroke="#3c3c3c" d="M5.495662227155012 6.733013201162085 L6.309725305216425 6.579058678926028 L6.309725305216425 4.332073907352422 L5.495662227155012 4.486028429588479 z"/>
<path fill="#3c3c3c" stroke="#3c3c3c" d="M6.90555863854976 2.7605806755419335 L6.905558638549761 5.007565447115537 L6.310627081021089 4.587051368004341 L6.310627081021089 2.3400665964307366 z"/>
<path fill="#3c3c3c" stroke="#3c3c3c" d="M4.0888919718830925 6.157438543562238 L4.6838235294117645 6.5779526226734335 L4.6838235294117645 4.33096785109983 L4.088891971883093 3.910453771988634 z"/>
<path fill="#3c3c3c" stroke="#3c3c3c" d="M6.388316151202748 6.523384794403171 L6.903995560488346 6.1580766529387345 L6.903995560488345 3.91109188136513 L6.309725305216425 4.332073907352424 L6.309725305216426 6.579058678926028 z"/>
<path fill="#3c3c3c" stroke="#3c3c3c" d="M1.6250000000000004 -3.4070016920473765 L1.6250000000000002 -1.160016920473773 L1.4083333333333337 -1.734953468697123 L1.4083333333333332 -3.9819382402707273 z"/>
<path fill="#3c3c3c" stroke="#3c3c3c" d="M4.684725305216425 2.338960540178143 L5.498788383277839 2.185006017942086 L5.498788383277839 4.43199078951569 L4.684725305216425 4.585945311751746 z"/>
<path fill="#3c3c3c" stroke="#3c3c3c" d="M5.498788383277838 2.185006017942085 L6.310627081021087 2.3400665964307357 L6.310627081021087 4.587051368004338 L5.498788383277838 4.431990789515687 z"/>
<path fill="#3c3c3c" stroke="#3c3c3c" d="M4.684725305216425 4.585945311751747 L4.090455049944505 5.006927337739041 L4.090455049944506 2.7599425661654373 L4.684725305216425 2.3389605401781433 z"/>
<path fill="#3c3c3c" stroke="#3c3c3c" d="M4.0888919718830925 3.910453771988634 L3.8713235294117645 3.3344111675126897 L3.8713235294117645 5.581395939086294 L4.0888919718830925 6.157438543562238 z"/>
<path fill="#3c3c3c" stroke="#3c3c3c" d="M3.871323529411764 3.3344111675126897 L4.090455049944505 2.759942566165437 L4.090455049944505 5.00692733773904 L3.871323529411764 5.581395939086294 z"/>
<path fill="#3c3c3c" stroke="#3c3c3c" d="M5.495662227155012 4.48602842958848 L4.683823529411764 4.330967851099829 L4.683823529411764 6.577952622673432 L5.495662227155012 6.733013201162082 z"/>
<path fill="#3c3c3c" stroke="#3c3c3c" d="M-4.088891971883093 3.910453771988634 L-4.6838235294117645 4.33096785109983 L-4.6838235294117645 6.5779526226734335 L-4.0888919718830925 6.157438543562238 z"/>
<path fill="#3c3c3c" stroke="#3c3c3c" d="M-4.683823529411764 4.330967851099829 L-5.495662227155012 4.48602842958848 L-5.495662227155012 6.733013201162084 L-4.683823529411764 6.5779526226734335 z"/>
<path fill="#3c3c3c" stroke="#3c3c3c" d="M-6.309725305216426 4.332073907352424 L-6.309725305216426 6.579058678926027 L-5.4956622271550115 6.733013201162083 L-5.4956622271550115 4.4860284295884805 z"/>
<path fill="#3c3c3c" stroke="#3c3c3c" d="M-6.903995560488346 3.9110918813651305 L-7.123127081021087 3.3366232800178777 L-7.123127081021087 5.583608051591481 L-6.903995560488346 6.1580766529387345 z"/>
<path fill="#3c3c3c" stroke="#3c3c3c" d="M-6.715017619311875 4.04496416562909 L-6.903995560488346 3.9110918813651305 L-6.903995560488346 6.1580766529387345 L-6.309725305216424 6.579058678926027 L-6.309725305216426 4.332073907352424 z"/>
<path fill="#3c3c3c" stroke="#3c3c3c" d="M-4.0888919718830925 6.157438543562238 L-3.871323529411765 5.581395939086294 L-3.871323529411765 3.3344111675126897 L-4.0888919718830925 3.910453771988634 z"/>
<path fill="#3c3c3c" stroke="#3c3c3c" d="M-4.090455049944505 2.759942566165437 L-4.090455049944506 5.006927337739041 L-4.684725305216425 4.585945311751748 L-4.684725305216425 2.338960540178143 z"/>
<path fill="#3c3c3c" stroke="#3c3c3c" d="M-4.684725305216426 4.585945311751747 L-5.498788383277839 4.43199078951569 L-5.498788383277839 2.185006017942085 L-4.684725305216426 2.338960540178142 z"/>
<path fill="#3c3c3c" stroke="#3c3c3c" d="M-6.905558638549759 5.007565447115537 L-7.123127081021088 5.583608051591482 L-7.123127081021087 3.3366232800178777 L-6.905558638549759 2.7605806755419335 z"/>
<path fill="#3c3c3c" stroke="#3c3c3c" d="M-5.498788383277839 2.1850060179420865 L-5.498788383277839 4.431990789515689 L-6.310627081021087 4.587051368004339 L-6.310627081021087 2.340066596430737 z"/>
<path fill="#3c3c3c" stroke="#3c3c3c" d="M-3.8713235294117645 5.581395939086294 L-4.090455049944506 5.006927337739041 L-4.090455049944505 2.759942566165437 L-3.871323529411764 3.3344111675126897 z"/>
<path fill="#3c3c3c" stroke="#3c3c3c" d="M9.316666666666666 1.927932882120699 L9.533333333333333 3.3333333333333326 L9.533333333333333 1.0863485617597288 L9.316666666666666 -0.3190518894529047 z"/>
<path fill="#3c3c3c" stroke="#3c3c3c" d="M8.704347826086956 0.5849946731841823 L9.316666666666666 1.9279328821206991 L9.316666666666666 -0.31905188945290464 L8.704347826086956 -1.6619900983894214 z"/>
<path fill="#3c3c3c" stroke="#3c3c3c" d="M7.717460317460318 -0.634856175972927 L8.704347826086956 0.5849946731841824 L8.704347826086956 -1.6619900983894216 L7.717460317460318 -2.881840947546531 z"/>
<path fill="#3c3c3c" stroke="#3c3c3c" d="M6.38831615120275 -1.6779231327048587 L7.717460317460318 -0.6348561759729269 L7.717460317460318 -2.8818409475465314 L6.38831615120275 -3.924907904278461 z"/>
<path fill="#3c3c3c" stroke="#3c3c3c" d="M1.0035087719298244 -3.369066753998147 L2.9507936507936505 -3.0835194585448424 L2.9507936507936505 -5.3305042301184455 L1.0035087719298244 -5.61605152557175 z"/>
<path fill="#3c3c3c" stroke="#3c3c3c" d="M4.766666666666668 -2.5131325437112233 L6.38831615120275 -1.6779231327048574 L6.38831615120275 -3.924907904278464 L4.766666666666667 -4.760117315284828 z"/>
<path fill="#3c3c3c" stroke="#3c3c3c" d="M2.95079365079365 -3.083519458544843 L4.766666666666666 -2.5131325437112273 L4.766666666666666 -4.760117315284829 L2.95079365079365 -5.330504230118444 z"/>
<path fill="#3c3c3c" stroke="#3c3c3c" d="M-1.0035087719298244 -3.369066753998144 L1.0035087719298244 -3.369066753998144 L1.0035087719298244 -5.6160515255717485 L-1.0035087719298244 -5.6160515255717485 z"/>
<path fill="#3c3c3c" stroke="#3c3c3c" d="M-2.9507936507936505 -3.0835194585448424 L-1.0035087719298244 -3.369066753998147 L-1.0035087719298244 -5.61605152557175 L-2.9507936507936505 -5.3305042301184455 z"/>
<path fill="#3c3c3c" stroke="#3c3c3c" d="M-4.766666666666666 -2.5131325437112273 L-2.95079365079365 -3.083519458544843 L-2.95079365079365 -5.330504230118444 L-4.766666666666666 -4.760117315284829 z"/>
<path fill="#3c3c3c" stroke="#3c3c3c" d="M-6.38831615120275 -1.6779231327048574 L-4.766666666666668 -2.5131325437112233 L-4.766666666666667 -4.760117315284828 L-6.38831615120275 -3.924907904278464 z"/>
<path fill="#3c3c3c" stroke="#3c3c3c" d="M-7.717460317460318 -0.6348561759729269 L-6.38831615120275 -1.6779231327048587 L-6.38831615120275 -3.924907904278461 L-7.717460317460318 -2.8818409475465314 z"/>
<path fill="#3c3c3c" stroke="#3c3c3c" d="M-8.704347826086956 0.5849946731841824 L-7.717460317460318 -0.634856175972927 L-7.717460317460318 -2.881840947546531 L-8.704347826086956 -1.6619900983894216 z"/>
<path fill="#3c3c3c" stroke="#3c3c3c" d="M-9.316666666666666 1.9279328821206991 L-8.704347826086956 0.5849946731841823 L-8.704347826086956 -1.6619900983894214 L-9.316666666666666 -0.31905188945290464 z"/>
<path fill="#3c3c3c" stroke="#3c3c3c" d="M-9.533333333333333 3.3333333333333326 L-9.316666666666666 1.927932882120699 L-9.316666666666666 -0.3190518894529047 L-9.533333333333333 1.0863485617597288 z"/>
<path fill="#3c3c3c" stroke="#3c3c3c" d="M-9.316666666666666 4.738733784545966 L-9.533333333333333 3.3333333333333326 L-9.533333333333331 1.0863485617597288 L-9.316666666666666 2.4917490129723627 z"/>
<path fill="#3c3c3c" stroke="#3c3c3c" d="M-8.704347826086956 6.081671993482484 L-9.316666666666666 4.738733784545966 L-9.316666666666666 2.4917490129723627 L-8.704347826086956 3.834687221908879 z"/>
<path fill="#3c3c3c" stroke="#3c3c3c" d="M-7.717460317460317 7.301522842639593 L-8.704347826086956 6.081671993482483 L-8.704347826086956 3.8346872219088795 L-7.717460317460317 5.054538071065989 z"/>
<path fill="#3c3c3c" stroke="#3c3c3c" d="M-4.766666666666666 9.179799210377888 L-6.388316151202748 8.344589799371523 L-6.388316151202749 6.09760502779792 L-4.766666666666666 6.932814438804286 z"/>
<path fill="#3c3c3c" stroke="#3c3c3c" d="M-2.95079365079365 9.750186125211503 L-4.766666666666666 9.179799210377888 L-4.766666666666666 6.932814438804286 L-2.95079365079365 7.503201353637901 z"/>
<path fill="#3c3c3c" stroke="#3c3c3c" d="M-6.388316151202749 8.344589799371525 L-7.717460317460317 7.301522842639593 L-7.717460317460317 5.054538071065989 L-6.388316151202749 6.09760502779792 z"/>
<path fill="#3c3c3c" stroke="#3c3c3c" d="M2.9507936507936505 9.750186125211505 L1.0035087719298244 10.035733420664808 L1.0035087719298244 7.788748649091205 L2.9507936507936505 7.503201353637899 z"/>
<path fill="#3c3c3c" stroke="#3c3c3c" d="M4.766666666666666 9.179799210377888 L2.95079365079365 9.750186125211503 L2.95079365079365 7.503201353637901 L4.766666666666666 6.932814438804286 z"/>
<path fill="#3c3c3c" stroke="#3c3c3c" d="M6.388316151202748 8.344589799371523 L4.766666666666666 9.179799210377888 L4.766666666666666 6.932814438804286 L6.388316151202749 6.09760502779792 z"/>
<path fill="#3c3c3c" stroke="#3c3c3c" d="M7.717460317460317 7.301522842639593 L6.388316151202749 8.344589799371525 L6.388316151202749 6.09760502779792 L7.717460317460317 5.054538071065989 z"/>
<path fill="#3c3c3c" stroke="#3c3c3c" d="M8.704347826086956 6.081671993482483 L7.717460317460317 7.301522842639593 L7.717460317460317 5.054538071065989 L8.704347826086956 3.8346872219088795 z"/>
<path fill="#3c3c3c" stroke="#3c3c3c" d="M1.0035087719298244 10.03573342066481 L-1.0035087719298244 10.03573342066481 L-1.0035087719298244 7.788748649091206 L1.0035087719298244 7.788748649091206 z"/>
<path fill="#3c3c3c" stroke="#3c3c3c" d="M-1.0035087719298244 10.035733420664808 L-2.9507936507936505 9.750186125211505 L-2.9507936507936505 7.503201353637899 L-1.0035087719298244 7.788748649091205 z"/>
<path fill="#3c3c3c" stroke="#3c3c3c" d="M9.316666666666666 4.738733784545966 L8.704347826086956 6.081671993482484 L8.704347826086956 3.834687221908879 L9.316666666666666 2.4917490129723627 z"/>
<path fill="#3c3c3c" stroke="#3c3c3c" d="M9.533333333333333 3.3333333333333326 L9.316666666666666 4.738733784545966 L9.316666666666666 2.4917490129723627 L9.533333333333331 1.0863485617597288 z"/>
<path fill="#3c3c3c" stroke="#3c3c3c" d="M-1.4083333333333328 -2.8320651438240265 L-1.6249999999999996 -3.4070016920473774 L-1.6249999999999998 -1.160016920473773 L-1.408333333333333 -0.5850803722504229 z"/>
<path fill="#3c3c3c" stroke="#3c3c3c" d="M-6.90555863854976 2.7605806755419335 L-6.310627081021088 2.340066596430737 L-6.310627081021089 4.5870513680043405 L-6.905558638549761 5.007565447115537 z"/>
<path fill="#3c3c3c" stroke="#3c3c3c" d="M9.316666666666666 -0.3190518894529047 L9.533333333333333 1.086348561759729 L9.316666666666666 2.4917490129723627 L8.704347826086956 3.8346872219088795 L7.717460317460317 5.054538071065989 L6.388316151202749 6.097605027797919 L4.766666666666667 6.932814438804286 L2.9507936507936505 7.503201353637901 L1.0035087719298244 7.788748649091206 L-1.0035087719298244 7.788748649091206 L-2.9507936507936505 7.503201353637901 L-4.766666666666667 6.932814438804286 L-6.388316151202749 6.097605027797919 L-7.717460317460317 5.054538071065989 L-8.704347826086956 3.8346872219088795 L-9.316666666666666 2.4917490129723627 L-9.533333333333333 1.086348561759729 L-9.316666666666666 -0.3190518894529047 L-8.704347826086956 -1.6619900983894214 L-7.717460317460317 -2.881840947546531 L-6.388316151202749 -3.9249079042784625 L-4.766666666666667 -4.760117315284827 L-2.9507936507936505 -5.330504230118443 L-1.0035087719298244 -5.616051525571748 L1.0035087719298244 -5.616051525571748 L2.9507936507936505 -5.330504230118443 L4.766666666666667 -4.760117315284827 L6.388316151202749 -3.9249079042784625 L7.717460317460317 -2.881840947546531 L8.704347826086956 -1.6619900983894214 z M-7.123127081021087 3.3366232800178777 L-6.903995560488346 3.9110918813651305 L-6.309725305216426 4.332073907352424 L-5.495662227155012 4.4860284295884805 L-4.6838235294117645 4.33096785109983 L-4.0888919718830925 3.910453771988634 L-3.8713235294117645 3.3344111675126897 L-4.090455049944506 2.759942566165437 L-4.684725305216426 2.3389605401781433 L-5.498788383277839 2.185006017942087 L-6.310627081021087 2.340066596430737 L-6.905558638549759 2.7605806755419335 z M-0.4805804907241173 -2.347812751819887 L0 -2.2571285956006766 L0.8125 -2.4104450084602367 L1.4083333333333332 -2.832065143824027 L1.625 -3.407001692047377 L1.4083333333333332 -3.9819382402707273 L0.8125 -4.403558375634518 L0 -4.556874788494077 L-0.8125 -4.403558375634518 L-1.4083333333333332 -3.9819382402707273 L-1.625 -3.407001692047377 L-1.4083333333333332 -2.832065143824027 L-0.8125 -2.4104450084602367 z M4.941988235294117 4.380277115059221 L5.495662227155012 4.4860284295884805 L6.309725305216426 4.332073907352424 L6.903995560488346 3.9110918813651305 L7.123127081021087 3.3366232800178777 L6.905558638549759 2.7605806755419335 L6.310627081021087 2.340066596430737 L5.498788383277839 2.185006017942087 L4.684725305216426 2.3389605401781433 L4.090455049944506 2.759942566165437 L3.8713235294117645 3.3344111675126897 L4.0888919718830925 3.910453771988634 L4.6838235294117645 4.33096785109983 z"/>
<path fill="#3c3c3c" stroke="#3c3c3c" d="M9.533333333333333 3.333333333333333 L9.316666666666666 1.9279328821206994 L8.704347826086956 0.5849946731841824 L7.717460317460317 -0.6348561759729271 L6.388316151202749 -1.6779231327048583 L4.766666666666667 -2.5131325437112233 L2.9507936507936505 -3.083519458544839 L1.0035087719298244 -3.369066753998144 L-1.0035087719298244 -3.369066753998144 L-2.9507936507936505 -3.083519458544839 L-4.766666666666667 -2.5131325437112233 L-6.388316151202749 -1.6779231327048583 L-7.717460317460317 -0.6348561759729271 L-8.704347826086956 0.5849946731841824 L-9.316666666666666 1.9279328821206994 L-9.533333333333333 3.333333333333333 L-9.316666666666666 4.738733784545967 L-8.704347826086956 6.081671993482483 L-7.717460317460317 7.301522842639593 L-6.388316151202749 8.344589799371523 L-4.766666666666667 9.17979921037789 L-2.9507936507936505 9.750186125211505 L-1.0035087719298244 10.035733420664808 L1.0035087719298244 10.035733420664808 L2.9507936507936505 9.750186125211505 L4.766666666666667 9.17979921037789 L6.388316151202749 8.344589799371523 L7.717460317460317 7.301522842639593 L8.704347826086956 6.081671993482483 L9.316666666666666 4.738733784545967 z M-6.905558638549759 5.007565447115537 L-6.310627081021087 4.587051368004341 L-5.498788383277839 4.431990789515691 L-4.684725305216426 4.585945311751747 L-4.090455049944506 5.00692733773904 L-3.8713235294117645 5.581395939086294 L-4.0888919718830925 6.157438543562238 L-4.6838235294117645 6.5779526226734335 L-5.495662227155012 6.733013201162085 L-6.309725305216426 6.579058678926028 L-6.903995560488346 6.1580766529387345 L-7.123127081021087 5.583608051591481 z M6.309725305216426 6.579058678926028 L5.495662227155012 6.733013201162085 L4.6838235294117645 6.5779526226734335 L4.0888919718830925 6.157438543562238 L3.8713235294117645 5.581395939086294 L4.090455049944506 5.00692733773904 L4.684725305216426 4.585945311751747 L5.498788383277839 4.431990789515691 L6.310627081021087 4.587051368004341 L6.905558638549759 5.007565447115537 L7.123127081021087 5.583608051591481 L6.903995560488346 6.1580766529387345 z M1.4083333333333332 -1.7349534686971233 L1.625 -1.1600169204737731 L1.4083333333333332 -0.585080372250423 L0.8125 -0.1634602368866328 L0 -0.010143824027072756 L-0.8125 -0.1634602368866328 L-1.4083333333333332 -0.585080372250423 L-1.625 -1.1600169204737731 L-1.4083333333333332 -1.7349534686971233 L-0.8125 -2.156573604060913 L0 -2.3098900169204732 L0.8125 -2.156573604060913 z"/>
<path fill="#3c3c3c" stroke="#3c3c3c" d="M3.9999999999999996 -3.7326565143824024 L3.9999999999999996 3.333333333333333 L3.7837837837837833 4.251319339644212 L3.7837837837837833 -2.814670508071523 z"/>
<path fill="#3c3c3c" stroke="#3c3c3c" d="M3.7837837837837838 -4.650642520693282 L3.7837837837837838 2.4153473270224532 L4 3.333333333333333 L4 -3.7326565143824024 z"/>
<path fill="#3c3c3c" stroke="#3c3c3c" d="M3.1578947368421058 -5.469527764959236 L3.1578947368421058 1.5964620827564988 L3.7837837837837847 2.4153473270224532 L3.7837837837837838 -4.650642520693282 z"/>
<path fill="#3c3c3c" stroke="#3c3c3c" d="M2.1904761904761907 -6.104120364018841 L2.190476190476191 0.9618694836968957 L3.1578947368421075 1.5964620827564986 L3.157894736842106 -5.469527764959236 z"/>
<path fill="#3c3c3c" stroke="#3c3c3c" d="M0.9795918367346937 -6.474661590524534 L0.9795918367346937 0.5913282571912001 L2.1904761904761902 0.9618694836968936 L2.1904761904761902 -6.104120364018841 z"/>
<path fill="#3c3c3c" stroke="#3c3c3c" d="M-3.52 -5.080493110949963 L-3.5200000000000014 1.9854967367657717 L-2.7096774193548403 1.2521150592216577 L-2.7096774193548394 -5.813874788494077 z"/>
<path fill="#3c3c3c" stroke="#3c3c3c" d="M-1.6103896103896103 -6.327241962774958 L-1.6103896103896103 0.7387478849407764 L-0.3333333333333333 0.5153454534612412 L-0.3333333333333333 -6.550644394254493 z"/>
<path fill="#3c3c3c" stroke="#3c3c3c" d="M-2.709677419354838 -5.813874788494079 L-2.709677419354838 1.2521150592216566 L-1.61038961038961 0.7387478849407767 L-1.61038961038961 -6.327241962774958 z"/>
<path fill="#3c3c3c" stroke="#3c3c3c" d="M-0.33333333333333326 -6.550644394254494 L-0.33333333333333326 0.5153454534612422 L0.9795918367346937 0.5913282571912004 L0.9795918367346937 -6.474661590524535 z"/>
<path fill="#3c3c3c" stroke="#3c3c3c" d="M-3.5199999999999996 -2.3848199178148413 L-3.5199999999999996 4.681169929900894 L-3.942028985507246 3.796499000153822 L-3.9420289855072457 -3.269490847561913 z"/>
<path fill="#3c3c3c" stroke="#3c3c3c" d="M-3.942028985507246 -3.2694908475619133 L-3.942028985507246 3.796499000153822 L-3.942028985507246 2.870167666512844 L-3.942028985507246 -4.1958221812028915 z"/>
<path fill="#3c3c3c" stroke="#3c3c3c" d="M-3.9420289855072466 -4.1958221812028915 L-3.9420289855072466 2.870167666512844 L-3.5200000000000005 1.9854967367657719 L-3.52 -5.080493110949963 z"/>
<path fill="#3c3c3c" stroke="#3c3c3c" d="M-2.709677419354838 -1.6514382402707273 L-2.709677419354838 5.4145516074450075 L-3.519999999999999 4.681169929900894 L-3.519999999999999 -2.3848199178148413 z"/>
<path fill="#3c3c3c" stroke="#3c3c3c" d="M-1.61038961038961 -1.138071065989849 L-1.61038961038961 5.927918781725885 L-2.709677419354838 5.414551607445005 L-2.709677419354838 -1.6514382402707288 z"/>
<path fill="#3c3c3c" stroke="#3c3c3c" d="M-0.3333333333333333 -0.914668634510313 L-0.3333333333333333 6.151321213205422 L-1.6103896103896103 5.927918781725886 L-1.6103896103896103 -1.138071065989848 z"/>
<path fill="#3c3c3c" stroke="#3c3c3c" d="M0.9795918367346937 -0.9906514382402719 L0.9795918367346937 6.075338409475464 L-0.33333333333333326 6.1513212132054225 L-0.33333333333333326 -0.9146686345103137 z"/>
<path fill="#3c3c3c" stroke="#3c3c3c" d="M3.7837837837837833 -2.814670508071523 L3.7837837837837838 4.251319339644212 L3.1578947368421044 5.070204583910167 L3.1578947368421044 -1.9957852638055678 z"/>
<path fill="#3c3c3c" stroke="#3c3c3c" d="M2.1904761904761902 -1.361192664745965 L2.1904761904761902 5.70479718296977 L0.9795918367346937 6.075338409475464 L0.9795918367346937 -0.9906514382402714 z"/>
<path fill="#3c3c3c" stroke="#3c3c3c" d="M3.1578947368421035 -1.9957852638055682 L3.1578947368421035 5.070204583910167 L2.190476190476189 5.70479718296977 L2.190476190476189 -1.361192664745964 z"/>
<path fill="#3c3c3c" stroke="#3c3c3c" d="M4 -3.732656514382402 L3.7837837837837838 -2.814670508071523 L3.157894736842105 -1.9957852638055682 L2.1904761904761902 -1.361192664745964 L0.9795918367346939 -0.9906514382402705 L-0.3333333333333333 -0.9146686345103124 L-1.6103896103896103 -1.1380710659898474 L-2.7096774193548385 -1.6514382402707273 L-3.5199999999999996 -2.3848199178148413 L-3.942028985507246 -3.269490847561913 L-3.942028985507246 -4.195822181202891 L-3.5199999999999996 -5.080493110949963 L-2.7096774193548385 -5.813874788494077 L-1.6103896103896103 -6.3272419627749565 L-0.3333333333333333 -6.550644394254492 L0.9795918367346939 -6.474661590524534 L2.1904761904761902 -6.104120364018841 L3.157894736842105 -5.469527764959236 L3.7837837837837838 -4.650642520693281 z"/>
<path fill="#3c3c3c" stroke="#3c3c3c" d="M4 3.333333333333333 L3.7837837837837838 2.4153473270224537 L3.157894736842105 1.5964620827564988 L2.1904761904761902 0.9618694836968948 L0.9795918367346939 0.5913282571912013 L-0.3333333333333333 0.515345453461243 L-1.6103896103896103 0.7387478849407783 L-2.7096774193548385 1.2521150592216579 L-3.5199999999999996 1.985496736765772 L-3.942028985507246 2.8701676665128435 L-3.942028985507246 3.7964990001538217 L-3.5199999999999996 4.681169929900894 L-2.7096774193548385 5.4145516074450075 L-1.6103896103896103 5.927918781725888 L-0.3333333333333333 6.151321213205423 L0.9795918367346939 6.0753384094754646 L2.1904761904761902 5.704797182969771 L3.157894736842105 5.070204583910167 L3.7837837837837838 4.251319339644212 z"/>
</svg>